<svg xmlns="http://www.w3.org/2000/svg" xmlns:xlink="http://www.w3.org/1999/xlink" width="1920" height="1808" viewBox="0 0 1920 1808">
  <defs>
    <style>
      .cls-1 {
        clip-path: url(#clip-Logo_-_icons_-_buttons);
      }

      .cls-11, .cls-12, .cls-14, .cls-2, .cls-9 {
        fill: #4e4e4e;
      }

      .cls-3 {
        fill: #ececec;
      }

      .cls-15, .cls-18, .cls-19, .cls-20, .cls-24, .cls-26, .cls-31, .cls-4 {
        fill: none;
      }

      .cls-16, .cls-27, .cls-5, .cls-6 {
        fill: #e97c00;
      }

      .cls-12, .cls-27, .cls-28, .cls-5, .cls-7 {
        font-size: 20px;
      }

      .cls-10, .cls-11, .cls-12, .cls-13, .cls-5, .cls-7, .cls-9 {
        font-family: Montserrat-Regular, Montserrat;
      }

      .cls-10, .cls-13, .cls-17, .cls-28, .cls-7 {
        fill: #e4e4e4;
      }

      .cls-21, .cls-8 {
        fill: #1a1a1a;
      }

      .cls-10, .cls-9 {
        font-size: 12px;
      }

      .cls-11 {
        font-size: 80px;
      }

      .cls-13, .cls-14 {
        font-size: 40px;
      }

      .cls-14, .cls-27, .cls-28 {
        font-family: Georgia;
      }

      .cls-15, .cls-20 {
        stroke: #4e4e4e;
      }

      .cls-15, .cls-18 {
        stroke-width: 4px;
      }

      .cls-18, .cls-19 {
        stroke: #e4e4e4;
      }

      .cls-19, .cls-20 {
        stroke-width: 2px;
      }

      .cls-21 {
        opacity: 0.07;
      }

      .cls-22 {
        fill: #1f7199;
      }

      .cls-23 {
        fill: #fff;
      }

      .cls-24 {
        stroke: #707070;
        stroke-width: 0.4px;
        opacity: 0.64;
      }

      .cls-25 {
        fill: #5edb00;
        stroke: #5edb00;
        stroke-width: 6px;
      }

      .cls-26 {
        stroke: #e97c00;
      }

      .cls-29, .cls-30, .cls-32, .cls-33 {
        stroke: none;
      }

      .cls-30 {
        fill: #e97c00;
      }

      .cls-32 {
        fill: #e4e4e4;
      }

      .cls-33 {
        fill: #4e4e4e;
      }

      .cls-34 {
        filter: url(#backgroundLogo-3);
      }

      .cls-35 {
        filter: url(#backgroundLogo-2);
      }

      .cls-36 {
        filter: url(#backgroundLogo);
      }
    </style>
    <filter id="backgroundLogo" x="409.735" y="818.781" width="1180.511" height="804.608" filterUnits="userSpaceOnUse">
      <feOffset dx="40" dy="40" input="SourceAlpha"/>
      <feGaussianBlur stdDeviation="20" result="blur"/>
      <feFlood flood-color="red"/>
      <feComposite operator="in" in2="blur"/>
      <feComposite in="SourceGraphic"/>
    </filter>
    <filter id="backgroundLogo-2" x="336.334" y="1220.392" width="464.511" height="342.607" filterUnits="userSpaceOnUse">
      <feOffset dx="40" dy="40" input="SourceAlpha"/>
      <feGaussianBlur stdDeviation="20" result="blur-2"/>
      <feFlood flood-color="red"/>
      <feComposite operator="in" in2="blur-2"/>
      <feComposite in="SourceGraphic"/>
    </filter>
    <filter id="backgroundLogo-3" x="776.735" y="1390.781" width="428.512" height="318.608" filterUnits="userSpaceOnUse">
      <feOffset dx="40" dy="40" input="SourceAlpha"/>
      <feGaussianBlur stdDeviation="20" result="blur-3"/>
      <feFlood flood-color="red"/>
      <feComposite operator="in" in2="blur-3"/>
      <feComposite in="SourceGraphic"/>
    </filter>
    <clipPath id="clip-Logo_-_icons_-_buttons">
      <rect width="1920" height="1808"/>
    </clipPath>
  </defs>
  <g id="Logo_-_icons_-_buttons" data-name="Logo - icons - buttons" class="cls-1">
    <rect class="cls-23" width="1920" height="1808"/>
    <g id="Design1" transform="translate(0 101)">
      <rect id="Rectangle_17" data-name="Rectangle 17" class="cls-2" width="1802" height="80" transform="translate(118 234)"/>
      <rect id="Rectangle_23" data-name="Rectangle 23" class="cls-2" width="1802" height="80" transform="translate(118 487)"/>
      <rect id="Rectangle_18" data-name="Rectangle 18" class="cls-2" width="271" height="79" transform="translate(292 259)"/>
      <rect id="Rectangle_25" data-name="Rectangle 25" class="cls-2" width="271" height="79" transform="translate(292 512)"/>
      <rect id="Rectangle_22" data-name="Rectangle 22" class="cls-2" width="724" height="79" transform="translate(694 259)"/>
      <rect id="Rectangle_27" data-name="Rectangle 27" class="cls-2" width="724" height="79" transform="translate(694 512)"/>
      <rect id="Rectangle_28" data-name="Rectangle 28" class="cls-2" width="724" height="79" transform="translate(694 465)"/>
      <rect id="Rectangle_19" data-name="Rectangle 19" class="cls-2" width="271" height="79" transform="translate(292 212)"/>
      <rect id="Rectangle_24" data-name="Rectangle 24" class="cls-2" width="271" height="79" transform="translate(292 465)"/>
      <rect id="Rectangle_21" data-name="Rectangle 21" class="cls-2" width="724" height="79" transform="translate(694 212)"/>
    </g>
    <g id="Sidebar">
      <rect id="sidebar-2" data-name="sidebar" class="cls-3" width="118" height="1080"/>
      <g id="Group_16" data-name="Group 16" transform="translate(-896 -482.636)">
        <g id="Path_47" data-name="Path 47" class="cls-4" transform="translate(902 570)">
          <path class="cls-29" d="M19.5,0h67a19.5,19.5,0,0,1,0,39h-67a19.5,19.5,0,0,1,0-39Z"/>
          <path class="cls-30" d="M 19.5 1 C 17.0020751953125 1 14.57939910888672 1.488998413085938 12.29927062988281 2.453414916992188 C 10.09642791748047 3.385143280029297 8.11785888671875 4.719184875488281 6.418525695800781 6.418529510498047 C 4.719184875488281 8.117856979370117 3.385139465332031 10.09642791748047 2.453414916992188 12.29927062988281 C 1.488998413085938 14.57939910888672 1 17.00207138061523 1 19.5 C 1 21.99792861938477 1.488998413085938 24.42060089111328 2.453414916992188 26.70072937011719 C 3.385139465332031 28.90357208251953 4.719184875488281 30.88214302062988 6.418525695800781 32.58147048950195 C 8.11785888671875 34.28081512451172 10.09642791748047 35.6148567199707 12.29927062988281 36.54658508300781 C 14.57939910888672 37.51100158691406 17.0020751953125 38 19.5 38 L 86.5 38 C 88.9979248046875 38 91.42060089111328 37.51100158691406 93.70072937011719 36.54658508300781 C 95.90357208251953 35.6148567199707 97.88214111328125 34.28081512451172 99.58147430419922 32.58147048950195 C 101.2808151245117 30.88214302062988 102.614860534668 28.90357208251953 103.5465850830078 26.70072937011719 C 104.5110015869141 24.42060089111328 105 21.99792861938477 105 19.5 C 105 17.00207138061523 104.5110015869141 14.57939910888672 103.5465850830078 12.29927062988281 C 102.614860534668 10.09642791748047 101.2808151245117 8.117856979370117 99.58147430419922 6.418529510498047 C 97.88214111328125 4.719184875488281 95.90357208251953 3.385143280029297 93.70072937011719 2.453414916992188 C 91.42060089111328 1.488998413085938 88.9979248046875 1 86.5 1 L 19.5 1 M 19.5 0 L 86.5 0 C 97.26955413818359 0 106 8.730442047119141 106 19.5 C 106 30.26955795288086 97.26955413818359 39 86.5 39 L 19.5 39 C 8.730445861816406 39 0 30.26955795288086 0 19.5 C 0 8.730442047119141 8.730445861816406 0 19.5 0 Z"/>
        </g>
        <text id="Previous" class="cls-5" transform="translate(912 596)"><tspan x="0" y="0">Previous</tspan></text>
      </g>
      <g id="Group_17" data-name="Group 17" transform="translate(-896 -423.636)">
        <rect id="Rectangle_20" data-name="Rectangle 20" class="cls-6" width="106" height="39" rx="19.5" transform="translate(902 570)"/>
        <text id="Next" class="cls-7" transform="translate(931 596)"><tspan x="0" y="0">Next</tspan></text>
      </g>
      <path id="logoRight" class="cls-8" d="M7.745,52.741,8.086,53A2.362,2.362,0,0,1,7.745,52.741ZM2.08,48.254C.347,46.74-1.051,42.817,1.074,36.822S12.535,24.885,17.4,20.121s5.647-9.583,4.249-13.9-7.492-2.915-9.561-1.85-3.354,2.97-.95,5.94c7.156,7.958,3.746,9.3,3.655,9.247.245-1.682-2.706-3.587-2.706-3.587A8.152,8.152,0,0,1,9.46,17.656c-1.286.392-3.97.336-5.591-5.324S9.069.171,16.785,0s12.188,6.332,10.846,14.4S20.81,25.053,14.793,31.712C2.508,46.379,6.45,51.6,7.745,52.741,6.7,51.944,3.517,49.508,2.08,48.254Zm12.266-8.01s2.551-7.293,7.749-7.293H38.252S34.5,40.243,27.48,40.243ZM22,29.825s3.179-7.577,9.827-7.577H60.268S56.4,29.825,49.874,29.825Zm8.409-10.607s1.881-7.2,9.449-7.2H82s-1.894,6.917-11.433,7.2c-3.18.094-8.7.125-14.651.125C44.017,19.343,30.409,19.218,30.409,19.218Z" transform="translate(18.334 18)"/>
    </g>
    <g id="names" transform="translate(0 101)">
      <text id="logoRight-2" data-name="logoRight" class="cls-9" transform="translate(328 115)"><tspan x="0" y="0">logoRight</tspan></text>
      <text id="mlogoRight" class="cls-9" transform="translate(329 376)"><tspan x="0" y="0">mlogoRight</tspan></text>
      <text id="logo2Right" class="cls-10" transform="translate(328 323)"><tspan x="0" y="0">logo2Right</tspan></text>
      <text id="mlogo2Right" class="cls-10" transform="translate(329 578)"><tspan x="0" y="0">mlogo2Right</tspan></text>
      <text id="logo2Left" class="cls-10" transform="translate(460 323)"><tspan x="0" y="0">logo2Left</tspan></text>
      <text id="mlogo2Left" class="cls-10" transform="translate(461 578)"><tspan x="0" y="0">mlogo2Left</tspan></text>
      <text id="tt2Passive" class="cls-10" transform="translate(742 329)"><tspan x="0" y="0">tt2Passive</tspan></text>
      <text id="mtt2Passive" class="cls-10" transform="translate(742 570)"><tspan x="0" y="0">mtt2Passive</tspan></text>
      <text id="ttPassive" class="cls-9" transform="translate(738 109)"><tspan x="0" y="0">ttPassive</tspan></text>
      <text id="mttPassive" class="cls-9" transform="translate(740 378)"><tspan x="0" y="0">mttPassive</tspan></text>
      <text id="vt2Passive" class="cls-10" transform="translate(853 329)"><tspan x="0" y="0">vt2Passive</tspan></text>
      <text id="mvt2Passive" class="cls-10" transform="translate(853 570)"><tspan x="0" y="0">mvt2Passive</tspan></text>
      <text id="ttActive" class="cls-10" transform="translate(1091 329)"><tspan x="0" y="0">ttActive</tspan></text>
      <text id="mttActive" class="cls-10" transform="translate(1091 570)"><tspan x="0" y="0">mttActive</tspan></text>
      <text id="ttActive-2" data-name="ttActive" class="cls-9" transform="translate(1091 109)"><tspan x="0" y="0">ttActive</tspan></text>
      <text id="mttActive-2" data-name="mttActive" class="cls-9" transform="translate(1091 378)"><tspan x="0" y="0">mttActive</tspan></text>
      <text id="mprofPassive" class="cls-9" transform="translate(965 378)"><tspan x="0" y="0">mprofPassive</tspan></text>
      <text id="mprofActive" class="cls-9" transform="translate(1309 378)"><tspan x="0" y="0">mprofActive</tspan></text>
      <text id="login" class="cls-9" transform="translate(1615 373)"><tspan x="0" y="0">login</tspan></text>
      <text id="signup" class="cls-9" transform="translate(1615 430)"><tspan x="0" y="0">signup</tspan></text>
      <text id="mprof2Passive" class="cls-10" transform="translate(962 570)"><tspan x="0" y="0">mprof2Passive</tspan></text>
      <text id="mprof2Active" class="cls-10" transform="translate(1306 570)"><tspan x="0" y="0">mprof2Active</tspan></text>
      <text id="prof2Passive" class="cls-10" transform="translate(962 329)"><tspan x="0" y="0">prof2Passive</tspan></text>
      <text id="prof2Active" class="cls-10" transform="translate(1313 329)"><tspan x="0" y="0">prof2Active</tspan></text>
      <text id="profPassive" class="cls-9" transform="translate(966 108)"><tspan x="0" y="0">profPassive</tspan></text>
      <text id="profActive" class="cls-9" transform="translate(1314 108)"><tspan x="0" y="0">profActive</tspan></text>
      <text id="vtActive" class="cls-10" transform="translate(1206 329)"><tspan x="0" y="0">vtActive</tspan></text>
      <text id="chatMemberIcon" class="cls-10" transform="translate(1437 305)"><tspan x="0" y="0">chatMemberIcon</tspan></text>
      <text id="chatMemberIcon-2" data-name="chatMemberIcon" class="cls-10" transform="translate(1432 558)"><tspan x="0" y="0">chatMemberIcon</tspan></text>
      <text id="send" class="cls-10" transform="translate(1576 306)"><tspan x="0" y="0">send</tspan></text>
      <text id="send-2" data-name="send" class="cls-10" transform="translate(1576 558)"><tspan x="0" y="0">send</tspan></text>
      <text id="mvtActive" class="cls-10" transform="translate(1206 570)"><tspan x="0" y="0">mvtActive</tspan></text>
      <text id="vtActive-2" data-name="vtActive" class="cls-9" transform="translate(1206 109)"><tspan x="0" y="0">vtActive</tspan></text>
      <text id="mvtActive-2" data-name="mvtActive" class="cls-9" transform="translate(1206 378)"><tspan x="0" y="0">mvtActive</tspan></text>
      <text id="vtPassive" class="cls-9" transform="translate(853 109)"><tspan x="0" y="0">vtPassive</tspan></text>
      <text id="mvtPassive" class="cls-9" transform="translate(855 378)"><tspan x="0" y="0">mvtPassive</tspan></text>
      <text id="logoLeft" class="cls-9" transform="translate(463 115)"><tspan x="0" y="0">logoLeft</tspan></text>
      <text id="mlogoLeft" class="cls-9" transform="translate(464 376)"><tspan x="0" y="0">mlogoLeft</tspan></text>
      <text id="logoBackground" class="cls-11" transform="translate(398 850)"><tspan x="0" y="0">logoBackground</tspan></text>
      <text id="mlogoBackground1" class="cls-12" transform="translate(353 1173)"><tspan x="0" y="0">mlogoBackground1</tspan></text>
      <text id="mlogoBackground2" class="cls-12" transform="translate(784 1340)"><tspan x="0" y="0">mlogoBackground2</tspan></text>
      <text id="Mobile" class="cls-13" transform="translate(1684 537)"><tspan x="0" y="0">Mobile</tspan></text>
      <text id="Web" class="cls-13" transform="translate(1705 284)"><tspan x="0" y="0">Web</tspan></text>
      <text id="Logo_-_Icons_-_Buttons-2" data-name="Logo - Icons - Buttons" class="cls-14" transform="translate(290 16)"><tspan x="0" y="0">Logo - Icons - Buttons</tspan></text>
    </g>
    <g id="LOGO_-_BUTTON_-_ICON" data-name="LOGO - BUTTON - ICON">
      <g id="ttPassive-2" data-name="ttPassive" transform="translate(735 219)">
        <g id="Group_76" data-name="Group 76">
          <path id="Path_2" data-name="Path 2" class="cls-2" d="M103.632,77.821s-1.41-5.127-5.275-5.275-33.454,0-33.454,0,2.186,5.275,9.135,5.275Z" transform="translate(-51.319 -44)"/>
          <path id="Path_3" data-name="Path 3" class="cls-2" d="M83.076,90.671a7.087,7.087,0,0,0-6.969-5.447H54.614s2.862,5.447,8.258,5.447Z" transform="translate(-24.923 -49.064)"/>
          <path id="Path_4" data-name="Path 4" class="cls-2" d="M62.87,103.884s-2.329-5.361-6.983-5.361H45.075s2.451,5.361,8.019,5.361Z" transform="translate(1.031 -54.348)"/>
          <g id="Ellipse_1" data-name="Ellipse 1" class="cls-15">
            <circle class="cls-29" cx="39" cy="39" r="39"/>
            <circle class="cls-31" cx="39" cy="39" r="37"/>
          </g>
        </g>
      </g>
      <g id="vtPassive-2" data-name="vtPassive" transform="translate(850 219)">
        <g id="Group_77" data-name="Group 77">
          <g id="Ellipse_2" data-name="Ellipse 2" class="cls-15">
            <circle class="cls-29" cx="39" cy="39" r="39"/>
            <circle class="cls-31" cx="39" cy="39" r="37"/>
          </g>
          <path id="Path_5" data-name="Path 5" class="cls-2" d="M58.159,317l16.518,16.518L104.6,303.591,74.677,323.322Z" transform="translate(-42 -280)"/>
        </g>
      </g>
      <g id="ttActive-3" data-name="ttActive" transform="translate(1080 219)">
        <g id="Group_78" data-name="Group 78">
          <g id="Path_17" data-name="Path 17" class="cls-16">
            <path class="cls-29" d="M 39 76 C 34.00415420532227 76 29.15880012512207 75.02200317382812 24.59854125976562 73.09317779541016 C 20.19284629821777 71.22972869873047 16.2357063293457 68.56161499023438 12.83704662322998 65.16295623779297 C 9.438387870788574 61.7642936706543 6.770270824432373 57.80715179443359 4.906823635101318 53.40145874023438 C 2.977999925613403 48.84120178222656 2 43.99584579467773 2 39 C 2 34.00415420532227 2.977999925613403 29.15880012512207 4.906823635101318 24.59854125976562 C 6.770270824432373 20.19284629821777 9.438387870788574 16.2357063293457 12.83704662322998 12.83704662322998 C 16.2357063293457 9.438387870788574 20.19284629821777 6.770270824432373 24.59854125976562 4.906823635101318 C 29.15880012512207 2.977999925613403 34.00415420532227 2 39 2 C 43.99584579467773 2 48.84120178222656 2.977999925613403 53.40145874023438 4.906823635101318 C 57.80715179443359 6.770270824432373 61.7642936706543 9.438387870788574 65.16295623779297 12.83704662322998 C 68.56161499023438 16.2357063293457 71.22972869873047 20.19284629821777 73.09317779541016 24.59854125976562 C 75.02200317382812 29.15880012512207 76 34.00415420532227 76 39 C 76 43.99584579467773 75.02200317382812 48.84120178222656 73.09317779541016 53.40145874023438 C 71.22972869873047 57.80715179443359 68.56161499023438 61.7642936706543 65.16295623779297 65.16295623779297 C 61.7642936706543 68.56161499023438 57.80715179443359 71.22972869873047 53.40145874023438 73.09317779541016 C 48.84120178222656 75.02200317382812 43.99584579467773 76 39 76 Z"/>
            <path class="cls-32" d="M 39 4 C 34.27326583862305 4 29.69004058837891 4.924842834472656 25.37765502929688 6.748825073242188 C 21.21034622192383 8.511451721191406 17.46689224243164 11.03562927246094 14.25126647949219 14.25126647949219 C 11.03562927246094 17.46689224243164 8.511451721191406 21.21034622192383 6.748825073242188 25.37765502929688 C 4.924842834472656 29.69004058837891 4 34.27326583862305 4 39 C 4 43.72673416137695 4.924842834472656 48.30994415283203 6.748825073242188 52.62234497070312 C 8.511451721191406 56.78964233398438 11.03562927246094 60.53310394287109 14.25126647949219 63.74873352050781 C 17.46689224243164 66.96436309814453 21.21034622192383 69.48854827880859 25.37765502929688 71.25117492675781 C 29.6900520324707 73.07515716552734 34.27326583862305 74 39 74 C 43.72673416137695 74 48.30994415283203 73.07515716552734 52.62234497070312 71.25117492675781 C 56.78964233398438 69.48854827880859 60.53310394287109 66.96436309814453 63.74873352050781 63.74873352050781 C 66.96436309814453 60.53310394287109 69.48854827880859 56.78964233398438 71.25117492675781 52.62234497070312 C 73.07515716552734 48.30994415283203 74 43.72673416137695 74 39 C 74 34.27326583862305 73.07515716552734 29.6900520324707 71.25117492675781 25.37765502929688 C 69.48854827880859 21.21034622192383 66.96436309814453 17.46689224243164 63.74873352050781 14.25126647949219 C 60.53310394287109 11.03562927246094 56.78964233398438 8.511451721191406 52.62234497070312 6.748825073242188 C 48.30994415283203 4.924842834472656 43.72673416137695 4 39 4 M 39 0 C 60.53909301757812 0 78 17.46089172363281 78 39 C 78 60.53909301757812 60.53909301757812 78 39 78 C 17.46089172363281 78 0 60.53909301757812 0 39 C 0 17.46089172363281 17.46089172363281 0 39 0 Z"/>
          </g>
          <path id="Path_2-2" data-name="Path 2" class="cls-17" d="M103.632,77.821s-1.41-5.127-5.275-5.275-33.454,0-33.454,0,2.186,5.275,9.135,5.275Z" transform="translate(-51.319 -44)"/>
          <path id="Path_3-2" data-name="Path 3" class="cls-17" d="M83.076,90.671a7.087,7.087,0,0,0-6.969-5.447H54.614s2.862,5.447,8.258,5.447Z" transform="translate(-24.923 -49.064)"/>
          <path id="Path_4-2" data-name="Path 4" class="cls-17" d="M62.87,103.884s-2.329-5.361-6.983-5.361H45.075s2.451,5.361,8.019,5.361Z" transform="translate(1.031 -54.348)"/>
        </g>
      </g>
      <g id="vtActive-3" data-name="vtActive" transform="translate(1195 219)">
        <g id="Group_79" data-name="Group 79">
          <g id="Path_20" data-name="Path 20" class="cls-16">
            <path class="cls-29" d="M 39 76 C 34.00415420532227 76 29.15880012512207 75.02200317382812 24.59854125976562 73.09317779541016 C 20.19284629821777 71.22972869873047 16.2357063293457 68.56161499023438 12.83704662322998 65.16295623779297 C 9.438387870788574 61.7642936706543 6.770270824432373 57.80715179443359 4.906823635101318 53.40145874023438 C 2.977999925613403 48.84120178222656 2 43.99584579467773 2 39 C 2 34.00415420532227 2.977999925613403 29.15880012512207 4.906823635101318 24.59854125976562 C 6.770270824432373 20.19284629821777 9.438387870788574 16.2357063293457 12.83704662322998 12.83704662322998 C 16.2357063293457 9.438387870788574 20.19284629821777 6.770270824432373 24.59854125976562 4.906823635101318 C 29.15880012512207 2.977999925613403 34.00415420532227 2 39 2 C 43.99584579467773 2 48.84120178222656 2.977999925613403 53.40145874023438 4.906823635101318 C 57.80715179443359 6.770270824432373 61.7642936706543 9.438387870788574 65.16295623779297 12.83704662322998 C 68.56161499023438 16.2357063293457 71.22972869873047 20.19284629821777 73.09317779541016 24.59854125976562 C 75.02200317382812 29.15880012512207 76 34.00415420532227 76 39 C 76 43.99584579467773 75.02200317382812 48.84120178222656 73.09317779541016 53.40145874023438 C 71.22972869873047 57.80715179443359 68.56161499023438 61.7642936706543 65.16295623779297 65.16295623779297 C 61.7642936706543 68.56161499023438 57.80715179443359 71.22972869873047 53.40145874023438 73.09317779541016 C 48.84120178222656 75.02200317382812 43.99584579467773 76 39 76 Z"/>
            <path class="cls-32" d="M 39 4 C 34.27326583862305 4 29.69004058837891 4.924842834472656 25.37765502929688 6.748825073242188 C 21.21034622192383 8.511451721191406 17.46689224243164 11.03562927246094 14.25126647949219 14.25126647949219 C 11.03562927246094 17.46689224243164 8.511451721191406 21.21034622192383 6.748825073242188 25.37765502929688 C 4.924842834472656 29.69004058837891 4 34.27326583862305 4 39 C 4 43.72673416137695 4.924842834472656 48.30994415283203 6.748825073242188 52.62234497070312 C 8.511451721191406 56.78964233398438 11.03562927246094 60.53310394287109 14.25126647949219 63.74873352050781 C 17.46689224243164 66.96436309814453 21.21034622192383 69.48854827880859 25.37765502929688 71.25117492675781 C 29.6900520324707 73.07515716552734 34.27326583862305 74 39 74 C 43.72673416137695 74 48.30994415283203 73.07515716552734 52.62234497070312 71.25117492675781 C 56.78964233398438 69.48854827880859 60.53310394287109 66.96436309814453 63.74873352050781 63.74873352050781 C 66.96436309814453 60.53310394287109 69.48854827880859 56.78964233398438 71.25117492675781 52.62234497070312 C 73.07515716552734 48.30994415283203 74 43.72673416137695 74 39 C 74 34.27326583862305 73.07515716552734 29.6900520324707 71.25117492675781 25.37765502929688 C 69.48854827880859 21.21034622192383 66.96436309814453 17.46689224243164 63.74873352050781 14.25126647949219 C 60.53310394287109 11.03562927246094 56.78964233398438 8.511451721191406 52.62234497070312 6.748825073242188 C 48.30994415283203 4.924842834472656 43.72673416137695 4 39 4 M 39 0 C 60.53909301757812 0 78 17.46089172363281 78 39 C 78 60.53909301757812 60.53909301757812 78 39 78 C 17.46089172363281 78 0 60.53909301757812 0 39 C 0 17.46089172363281 17.46089172363281 0 39 0 Z"/>
          </g>
          <path id="Path_5-2" data-name="Path 5" class="cls-17" d="M58.159,317l16.518,16.518L104.6,303.591,74.677,323.322Z" transform="translate(-42 -280)"/>
        </g>
      </g>
      <g id="logoRight-3" data-name="logoRight" transform="translate(306.334 225.635)">
        <path id="logoRight-4" data-name="logoRight" class="cls-8" d="M9.446,64.682,9.862,65A2.845,2.845,0,0,1,9.446,64.682Zm-6.909-5.5c-2.114-1.856-3.819-6.666-1.228-14.02s13.978-14.639,19.91-20.481S28.106,12.925,26.4,7.632s-9.137-3.573-11.66-2.268-4.091,3.643-1.159,7.285c8.727,9.76,4.568,11.409,4.458,11.34.3-2.062-3.3-4.4-3.3-4.4a9.954,9.954,0,0,1-3.2,2.062c-1.568.481-4.841.412-6.818-6.53S11.06.21,20.47,0,35.333,7.77,33.7,17.667,25.378,30.725,18.041,38.893C3.06,56.878,7.867,63.277,9.446,64.682,8.169,63.7,4.289,60.717,2.537,59.179ZM17.5,49.355s3.111-8.944,9.449-8.944h19.7s-4.571,8.944-13.136,8.944Zm9.334-12.777s3.878-9.292,11.983-9.292H73.5s-4.717,9.292-12.675,9.292ZM37.084,23.569s2.293-8.827,11.523-8.827H100s-2.309,8.483-13.943,8.827c-3.877.115-10.612.153-17.867.153C53.68,23.722,37.084,23.569,37.084,23.569Z" transform="translate(0 0)"/>
      </g>
      <g id="logoLeft-2" data-name="logoLeft" transform="translate(444.862 225.635)">
        <path id="logoLeft-3" data-name="logoLeft" class="cls-8" d="M90.554,64.682a2.845,2.845,0,0,1-.416.318ZM81.959,38.893C74.622,30.725,67.939,27.563,66.3,17.667S70.122-.2,79.53,0s17.728,8.178,15.751,15.12-5.251,7.011-6.818,6.53a9.954,9.954,0,0,1-3.2-2.062s-3.6,2.336-3.3,4.4c-.111.069-4.27-1.58,4.458-11.34,2.932-3.642,1.364-5.98-1.159-7.285S75.3,2.34,73.6,7.632s-.75,11.2,5.182,17.045S96.1,37.8,98.69,45.158s.887,12.164-1.228,14.02c-1.751,1.538-5.633,4.527-6.909,5.5C92.132,63.278,96.942,56.879,81.959,38.893ZM66.488,49.355c-8.565,0-13.136-8.944-13.136-8.944h19.7c6.338,0,9.449,8.944,9.449,8.944ZM39.178,36.578c-7.958,0-12.675-9.292-12.675-9.292H61.187c8.105,0,11.983,9.292,11.983,9.292ZM13.943,23.569C2.309,23.225,0,14.742,0,14.742H51.393c9.229,0,11.523,8.827,11.523,8.827s-16.6.153-31.106.153C24.555,23.722,17.82,23.684,13.943,23.569Z" transform="translate(0 0)"/>
      </g>
      <g id="logoRight-5" data-name="logoRight" transform="translate(306.334 342.635)">
        <path id="logoRight-6" data-name="logoRight" class="cls-17" d="M9.446,64.682,9.862,65A2.845,2.845,0,0,1,9.446,64.682Zm-6.909-5.5c-2.114-1.856-3.819-6.666-1.228-14.02s13.978-14.639,19.91-20.481S28.106,12.925,26.4,7.632s-9.137-3.573-11.66-2.268-4.091,3.643-1.159,7.285c8.727,9.76,4.568,11.409,4.458,11.34.3-2.062-3.3-4.4-3.3-4.4a9.954,9.954,0,0,1-3.2,2.062c-1.568.481-4.841.412-6.818-6.53S11.06.21,20.47,0,35.333,7.77,33.7,17.667,25.378,30.725,18.041,38.893C3.06,56.878,7.867,63.277,9.446,64.682,8.169,63.7,4.289,60.717,2.537,59.179ZM17.5,49.355s3.111-8.944,9.449-8.944h19.7s-4.571,8.944-13.136,8.944Zm9.334-12.777s3.878-9.292,11.983-9.292H73.5s-4.717,9.292-12.675,9.292ZM37.084,23.569s2.293-8.827,11.523-8.827H100s-2.309,8.483-13.943,8.827c-3.877.115-10.612.153-17.867.153C53.68,23.722,37.084,23.569,37.084,23.569Z" transform="translate(0 0)"/>
      </g>
      <g id="logoRight-7" data-name="logoRight" transform="translate(321.334 605.636)">
        <path id="logoRight-8" data-name="logoRight" class="cls-17" d="M6.612,44.78,6.9,45A2,2,0,0,1,6.612,44.78ZM1.776,40.97C.3,39.686-.9,36.355.917,31.263S10.7,21.128,14.854,17.084s4.82-8.136,3.627-11.8-6.4-2.474-8.161-1.57S7.456,6.236,9.508,8.758c6.109,6.756,3.2,7.9,3.121,7.851.209-1.427-2.309-3.046-2.309-3.046A6.974,6.974,0,0,1,8.077,14.99c-1.1.333-3.389.286-4.774-4.52S7.742.146,14.329,0s10.4,5.377,9.259,12.228-5.823,9.04-10.959,14.694C2.141,39.379,5.507,43.808,6.612,44.78,5.72,44.1,3,42.035,1.776,40.97Zm10.471-6.8s2.177-6.191,6.614-6.191H32.654s-3.2,6.191-9.2,6.191Zm6.533-8.845s2.714-6.433,8.389-6.433H51.448s-3.3,6.433-8.872,6.433Zm7.178-9.006s1.606-6.111,8.067-6.111H70s-1.615,5.873-9.76,6.111c-2.714.08-7.429.106-12.507.106C37.575,16.423,25.959,16.317,25.959,16.317Z" transform="translate(0)"/>
      </g>
      <g id="logoLeft-4" data-name="logoLeft" transform="translate(444.862 342.635)">
        <path id="logoLeft-5" data-name="logoLeft" class="cls-17" d="M90.554,64.682a2.845,2.845,0,0,1-.416.318ZM81.959,38.893C74.622,30.725,67.939,27.563,66.3,17.667S70.122-.2,79.53,0s17.728,8.178,15.751,15.12-5.251,7.011-6.818,6.53a9.954,9.954,0,0,1-3.2-2.062s-3.6,2.336-3.3,4.4c-.111.069-4.27-1.58,4.458-11.34,2.932-3.642,1.364-5.98-1.159-7.285S75.3,2.34,73.6,7.632s-.75,11.2,5.182,17.045S96.1,37.8,98.69,45.158s.887,12.164-1.228,14.02c-1.751,1.538-5.633,4.527-6.909,5.5C92.132,63.278,96.942,56.879,81.959,38.893ZM66.488,49.355c-8.565,0-13.136-8.944-13.136-8.944h19.7c6.338,0,9.449,8.944,9.449,8.944ZM39.178,36.578c-7.958,0-12.675-9.292-12.675-9.292H61.187c8.105,0,11.983,9.292,11.983,9.292ZM13.943,23.569C2.309,23.225,0,14.742,0,14.742H51.393c9.229,0,11.523,8.827,11.523,8.827s-16.6.153-31.106.153C24.555,23.722,17.82,23.684,13.943,23.569Z" transform="translate(0 0)"/>
      </g>
      <g id="logoLeft-6" data-name="logoLeft" transform="translate(459.862 605.636)">
        <path id="logoLeft-7" data-name="logoLeft" class="cls-17" d="M63.388,44.78A2,2,0,0,1,63.1,45ZM57.371,26.925c-5.136-5.654-9.814-7.843-10.959-14.694S49.085-.14,55.672,0,68.081,5.665,66.7,10.471s-3.676,4.853-4.773,4.52a6.971,6.971,0,0,1-2.244-1.427s-2.518,1.618-2.309,3.046c-.076.048-2.988-1.094,3.121-7.851,2.052-2.522.954-4.14-.812-5.044S52.713,1.62,51.52,5.284s-.526,7.756,3.627,11.8S67.27,26.172,69.083,31.263s.621,8.422-.859,9.707C67,42.035,64.282,44.1,63.388,44.78,64.494,43.808,67.86,39.378,57.371,26.925Zm-10.83,7.243c-6,0-9.2-6.191-9.2-6.191H51.139c4.436,0,6.614,6.191,6.614,6.191ZM27.425,25.323c-5.571,0-8.872-6.433-8.872-6.433H42.831c5.674,0,8.389,6.433,8.389,6.433ZM9.76,16.317C1.616,16.079,0,10.206,0,10.206H35.975c6.461,0,8.066,6.111,8.066,6.111s-11.616.106-21.774.106C17.188,16.423,12.474,16.4,9.76,16.317Z"/>
      </g>
      <g id="tt2Passive-2" data-name="tt2Passive" transform="translate(735 335)">
        <g id="Group_86" data-name="Group 86">
          <path id="Path_2-3" data-name="Path 2" class="cls-17" d="M103.632,77.821s-1.41-5.127-5.275-5.275-33.454,0-33.454,0,2.186,5.275,9.135,5.275Z" transform="translate(-51.319 -44)"/>
          <path id="Path_3-3" data-name="Path 3" class="cls-17" d="M83.076,90.671a7.087,7.087,0,0,0-6.969-5.447H54.614s2.862,5.447,8.258,5.447Z" transform="translate(-24.923 -49.064)"/>
          <path id="Path_4-3" data-name="Path 4" class="cls-17" d="M62.87,103.884s-2.329-5.361-6.983-5.361H45.075s2.451,5.361,8.019,5.361Z" transform="translate(1.031 -54.348)"/>
          <g id="Ellipse_1-2" data-name="Ellipse 1" class="cls-18">
            <circle class="cls-29" cx="39" cy="39" r="39"/>
            <circle class="cls-31" cx="39" cy="39" r="37"/>
          </g>
        </g>
      </g>
      <g id="mtt2Passive-2" data-name="mtt2Passive" transform="translate(749 595)">
        <g id="Group_87" data-name="Group 87">
          <path id="Path_2-4" data-name="Path 2" class="cls-17" d="M92.764,76.322s-1.014-3.688-3.795-3.795-24.065,0-24.065,0a6.935,6.935,0,0,0,6.572,3.795Z" transform="translate(-57.319 -54)"/>
          <path id="Path_3-4" data-name="Path 3" class="cls-17" d="M72.606,88.667A4.48,4.48,0,0,0,68.2,85.224H54.614s1.809,3.443,5.22,3.443Z" transform="translate(-33.923 -61.064)"/>
          <path id="Path_4-4" data-name="Path 4" class="cls-17" d="M55.078,101.536s-1.309-3.014-3.925-3.014H45.075a5.321,5.321,0,0,0,4.508,3.014Z" transform="translate(-12.969 -69.348)"/>
          <g id="Ellipse_1-3" data-name="Ellipse 1" class="cls-19">
            <circle class="cls-29" cx="25" cy="25" r="25"/>
            <circle class="cls-31" cx="25" cy="25" r="24"/>
          </g>
        </g>
      </g>
      <g id="mttPassive-2" data-name="mttPassive" transform="translate(749 499)">
        <g id="Group_88" data-name="Group 88">
          <path id="Path_2-5" data-name="Path 2" class="cls-2" d="M92.764,76.322s-1.014-3.688-3.795-3.795-24.065,0-24.065,0a6.935,6.935,0,0,0,6.572,3.795Z" transform="translate(-57.319 -54)"/>
          <path id="Path_3-5" data-name="Path 3" class="cls-2" d="M72.606,88.667A4.48,4.48,0,0,0,68.2,85.224H54.614s1.809,3.443,5.22,3.443Z" transform="translate(-33.923 -61.064)"/>
          <path id="Path_4-5" data-name="Path 4" class="cls-2" d="M55.078,101.536s-1.309-3.014-3.925-3.014H45.075a5.321,5.321,0,0,0,4.508,3.014Z" transform="translate(-12.969 -69.348)"/>
          <g id="Ellipse_1-4" data-name="Ellipse 1" class="cls-20">
            <circle class="cls-29" cx="25" cy="25" r="25"/>
            <circle class="cls-31" cx="25" cy="25" r="24"/>
          </g>
        </g>
      </g>
      <g id="tt2Passive-3" data-name="tt2Passive" transform="translate(1094 499)">
        <g id="Group_89" data-name="Group 89">
          <g id="Path_43" data-name="Path 43" class="cls-16">
            <path class="cls-29" d="M 25 49 C 21.75958061218262 49 18.61661911010742 48.36558151245117 15.65841960906982 47.1143684387207 C 12.80064010620117 45.9056282043457 10.23388004302979 44.17499923706055 8.029439926147461 41.97055816650391 C 5.824999809265137 39.76612091064453 4.094369888305664 37.19935989379883 2.885629892349243 34.34157943725586 C 1.634420037269592 31.38338088989258 1 28.24041938781738 1 25 C 1 21.75958061218262 1.634420037269592 18.61661911010742 2.885629892349243 15.65841960906982 C 4.094369888305664 12.80064010620117 5.824999809265137 10.23388004302979 8.029439926147461 8.029439926147461 C 10.23388004302979 5.824999809265137 12.80064010620117 4.094369888305664 15.65841960906982 2.885629892349243 C 18.61661911010742 1.634420037269592 21.75958061218262 1 25 1 C 28.24041938781738 1 31.38338088989258 1.634420037269592 34.34157943725586 2.885629892349243 C 37.19935989379883 4.094369888305664 39.76612091064453 5.824999809265137 41.97055816650391 8.029439926147461 C 44.17499923706055 10.23388004302979 45.9056282043457 12.80064010620117 47.1143684387207 15.65841960906982 C 48.36558151245117 18.61661911010742 49 21.75958061218262 49 25 C 49 28.24041938781738 48.36558151245117 31.38338088989258 47.1143684387207 34.34157943725586 C 45.9056282043457 37.19935989379883 44.17499923706055 39.76612091064453 41.97055816650391 41.97055816650391 C 39.76612091064453 44.17499923706055 37.19935989379883 45.9056282043457 34.34157943725586 47.1143684387207 C 31.38338088989258 48.36558151245117 28.24041938781738 49 25 49 Z"/>
            <path class="cls-32" d="M 25 2 C 21.89414024353027 2 18.88224029541016 2.607841491699219 16.04798126220703 3.806629180908203 C 13.30939102172852 4.964958190917969 10.84946823120117 6.623619079589844 8.736541748046875 8.736541748046875 C 6.623619079589844 10.84946823120117 4.964958190917969 13.30939102172852 3.806629180908203 16.04798126220703 C 2.607841491699219 18.88224029541016 2 21.89414024353027 2 25 C 2 28.10585975646973 2.607841491699219 31.11775970458984 3.806629180908203 33.95201873779297 C 4.964958190917969 36.69060897827148 6.623619079589844 39.15052795410156 8.736541748046875 41.26345825195312 C 10.84946823120117 43.37638092041016 13.30939102172852 45.03504180908203 16.04798126220703 46.1933708190918 C 18.88224029541016 47.39215850830078 21.89414024353027 48 25 48 C 28.10585975646973 48 31.11775970458984 47.39215850830078 33.95201873779297 46.1933708190918 C 36.69060897827148 45.03504180908203 39.15052795410156 43.37638092041016 41.26345825195312 41.26345825195312 C 43.37638092041016 39.15052795410156 45.03504180908203 36.69060897827148 46.1933708190918 33.95201873779297 C 47.39215850830078 31.11775970458984 48 28.10585975646973 48 25 C 48 21.89414024353027 47.39215850830078 18.88224029541016 46.1933708190918 16.04798126220703 C 45.03504180908203 13.30939102172852 43.37638092041016 10.84946823120117 41.26345825195312 8.736541748046875 C 39.15052795410156 6.623619079589844 36.69060897827148 4.964958190917969 33.95201873779297 3.806629180908203 C 31.11775970458984 2.607841491699219 28.10585975646973 2 25 2 M 25 0 C 38.80712127685547 0 50 11.19287872314453 50 25 C 50 38.80712127685547 38.80712127685547 50 25 50 C 11.19287872314453 50 0 38.80712127685547 0 25 C 0 11.19287872314453 11.19287872314453 0 25 0 Z"/>
          </g>
          <path id="Path_2-6" data-name="Path 2" class="cls-17" d="M92.764,76.322s-1.014-3.688-3.795-3.795-24.065,0-24.065,0a6.935,6.935,0,0,0,6.572,3.795Z" transform="translate(-57.319 -54)"/>
          <path id="Path_3-6" data-name="Path 3" class="cls-17" d="M72.606,88.667A4.48,4.48,0,0,0,68.2,85.224H54.614s1.809,3.443,5.22,3.443Z" transform="translate(-33.923 -61.064)"/>
          <path id="Path_4-6" data-name="Path 4" class="cls-17" d="M55.078,101.536s-1.309-3.014-3.925-3.014H45.075a5.321,5.321,0,0,0,4.508,3.014Z" transform="translate(-12.969 -69.348)"/>
        </g>
      </g>
      <g id="tt2Passive-4" data-name="tt2Passive" transform="translate(1094 595)">
        <g id="Group_90" data-name="Group 90">
          <g id="Path_43-2" data-name="Path 43" class="cls-16">
            <path class="cls-29" d="M 25 49 C 21.75958061218262 49 18.61661911010742 48.36558151245117 15.65841960906982 47.1143684387207 C 12.80064010620117 45.9056282043457 10.23388004302979 44.17499923706055 8.029439926147461 41.97055816650391 C 5.824999809265137 39.76612091064453 4.094369888305664 37.19935989379883 2.885629892349243 34.34157943725586 C 1.634420037269592 31.38338088989258 1 28.24041938781738 1 25 C 1 21.75958061218262 1.634420037269592 18.61661911010742 2.885629892349243 15.65841960906982 C 4.094369888305664 12.80064010620117 5.824999809265137 10.23388004302979 8.029439926147461 8.029439926147461 C 10.23388004302979 5.824999809265137 12.80064010620117 4.094369888305664 15.65841960906982 2.885629892349243 C 18.61661911010742 1.634420037269592 21.75958061218262 1 25 1 C 28.24041938781738 1 31.38338088989258 1.634420037269592 34.34157943725586 2.885629892349243 C 37.19935989379883 4.094369888305664 39.76612091064453 5.824999809265137 41.97055816650391 8.029439926147461 C 44.17499923706055 10.23388004302979 45.9056282043457 12.80064010620117 47.1143684387207 15.65841960906982 C 48.36558151245117 18.61661911010742 49 21.75958061218262 49 25 C 49 28.24041938781738 48.36558151245117 31.38338088989258 47.1143684387207 34.34157943725586 C 45.9056282043457 37.19935989379883 44.17499923706055 39.76612091064453 41.97055816650391 41.97055816650391 C 39.76612091064453 44.17499923706055 37.19935989379883 45.9056282043457 34.34157943725586 47.1143684387207 C 31.38338088989258 48.36558151245117 28.24041938781738 49 25 49 Z"/>
            <path class="cls-32" d="M 25 2 C 21.89414024353027 2 18.88224029541016 2.607841491699219 16.04798126220703 3.806629180908203 C 13.30939102172852 4.964958190917969 10.84946823120117 6.623619079589844 8.736541748046875 8.736541748046875 C 6.623619079589844 10.84946823120117 4.964958190917969 13.30939102172852 3.806629180908203 16.04798126220703 C 2.607841491699219 18.88224029541016 2 21.89414024353027 2 25 C 2 28.10585975646973 2.607841491699219 31.11775970458984 3.806629180908203 33.95201873779297 C 4.964958190917969 36.69060897827148 6.623619079589844 39.15052795410156 8.736541748046875 41.26345825195312 C 10.84946823120117 43.37638092041016 13.30939102172852 45.03504180908203 16.04798126220703 46.1933708190918 C 18.88224029541016 47.39215850830078 21.89414024353027 48 25 48 C 28.10585975646973 48 31.11775970458984 47.39215850830078 33.95201873779297 46.1933708190918 C 36.69060897827148 45.03504180908203 39.15052795410156 43.37638092041016 41.26345825195312 41.26345825195312 C 43.37638092041016 39.15052795410156 45.03504180908203 36.69060897827148 46.1933708190918 33.95201873779297 C 47.39215850830078 31.11775970458984 48 28.10585975646973 48 25 C 48 21.89414024353027 47.39215850830078 18.88224029541016 46.1933708190918 16.04798126220703 C 45.03504180908203 13.30939102172852 43.37638092041016 10.84946823120117 41.26345825195312 8.736541748046875 C 39.15052795410156 6.623619079589844 36.69060897827148 4.964958190917969 33.95201873779297 3.806629180908203 C 31.11775970458984 2.607841491699219 28.10585975646973 2 25 2 M 25 0 C 38.80712127685547 0 50 11.19287872314453 50 25 C 50 38.80712127685547 38.80712127685547 50 25 50 C 11.19287872314453 50 0 38.80712127685547 0 25 C 0 11.19287872314453 11.19287872314453 0 25 0 Z"/>
          </g>
          <path id="Path_2-7" data-name="Path 2" class="cls-17" d="M92.764,76.322s-1.014-3.688-3.795-3.795-24.065,0-24.065,0a6.935,6.935,0,0,0,6.572,3.795Z" transform="translate(-57.319 -54)"/>
          <path id="Path_3-7" data-name="Path 3" class="cls-17" d="M72.606,88.667A4.48,4.48,0,0,0,68.2,85.224H54.614s1.809,3.443,5.22,3.443Z" transform="translate(-33.923 -61.064)"/>
          <path id="Path_4-7" data-name="Path 4" class="cls-17" d="M55.078,101.536s-1.309-3.014-3.925-3.014H45.075a5.321,5.321,0,0,0,4.508,3.014Z" transform="translate(-12.969 -69.348)"/>
        </g>
      </g>
      <g id="vt2Passive-2" data-name="vt2Passive" transform="translate(850 335)">
        <g id="Group_91" data-name="Group 91">
          <g id="Ellipse_2-2" data-name="Ellipse 2" class="cls-18">
            <circle class="cls-29" cx="39" cy="39" r="39"/>
            <circle class="cls-31" cx="39" cy="39" r="37"/>
          </g>
          <path id="Path_5-3" data-name="Path 5" class="cls-17" d="M58.159,317l16.518,16.518L104.6,303.591,74.677,323.322Z" transform="translate(-42 -280)"/>
        </g>
      </g>
      <g id="mvt2Passive-2" data-name="mvt2Passive" transform="translate(864 595)">
        <g id="Group_92" data-name="Group 92">
          <g id="Ellipse_2-3" data-name="Ellipse 2" class="cls-19">
            <circle class="cls-29" cx="25" cy="25" r="25"/>
            <circle class="cls-31" cx="25" cy="25" r="24"/>
          </g>
          <path id="Path_5-4" data-name="Path 5" class="cls-17" d="M58.159,311.149l9.31,9.31,16.868-16.868L67.469,314.712Z" transform="translate(-46 -287)"/>
        </g>
      </g>
      <g id="mvtPassive-2" data-name="mvtPassive" transform="translate(864 499)">
        <g id="Group_93" data-name="Group 93">
          <g id="Ellipse_2-4" data-name="Ellipse 2" class="cls-20">
            <circle class="cls-29" cx="25" cy="25" r="25"/>
            <circle class="cls-31" cx="25" cy="25" r="24"/>
          </g>
          <path id="Path_5-5" data-name="Path 5" class="cls-2" d="M58.159,311.149l9.31,9.31,16.868-16.868L67.469,314.712Z" transform="translate(-46 -287)"/>
        </g>
      </g>
      <g id="vt2Passive-3" data-name="vt2Passive" transform="translate(1209 499)">
        <g id="Group_94" data-name="Group 94">
          <g id="Path_45" data-name="Path 45" class="cls-16">
            <path class="cls-29" d="M 25 49 C 21.75958061218262 49 18.61661911010742 48.36558151245117 15.65841960906982 47.1143684387207 C 12.80064010620117 45.9056282043457 10.23388004302979 44.17499923706055 8.029439926147461 41.97055816650391 C 5.824999809265137 39.76612091064453 4.094369888305664 37.19935989379883 2.885629892349243 34.34157943725586 C 1.634420037269592 31.38338088989258 1 28.24041938781738 1 25 C 1 21.75958061218262 1.634420037269592 18.61661911010742 2.885629892349243 15.65841960906982 C 4.094369888305664 12.80064010620117 5.824999809265137 10.23388004302979 8.029439926147461 8.029439926147461 C 10.23388004302979 5.824999809265137 12.80064010620117 4.094369888305664 15.65841960906982 2.885629892349243 C 18.61661911010742 1.634420037269592 21.75958061218262 1 25 1 C 28.24041938781738 1 31.38338088989258 1.634420037269592 34.34157943725586 2.885629892349243 C 37.19935989379883 4.094369888305664 39.76612091064453 5.824999809265137 41.97055816650391 8.029439926147461 C 44.17499923706055 10.23388004302979 45.9056282043457 12.80064010620117 47.1143684387207 15.65841960906982 C 48.36558151245117 18.61661911010742 49 21.75958061218262 49 25 C 49 28.24041938781738 48.36558151245117 31.38338088989258 47.1143684387207 34.34157943725586 C 45.9056282043457 37.19935989379883 44.17499923706055 39.76612091064453 41.97055816650391 41.97055816650391 C 39.76612091064453 44.17499923706055 37.19935989379883 45.9056282043457 34.34157943725586 47.1143684387207 C 31.38338088989258 48.36558151245117 28.24041938781738 49 25 49 Z"/>
            <path class="cls-32" d="M 25 2 C 21.89414024353027 2 18.88224029541016 2.607841491699219 16.04798126220703 3.806629180908203 C 13.30939102172852 4.964958190917969 10.84946823120117 6.623619079589844 8.736541748046875 8.736541748046875 C 6.623619079589844 10.84946823120117 4.964958190917969 13.30939102172852 3.806629180908203 16.04798126220703 C 2.607841491699219 18.88224029541016 2 21.89414024353027 2 25 C 2 28.10585975646973 2.607841491699219 31.11775970458984 3.806629180908203 33.95201873779297 C 4.964958190917969 36.69060897827148 6.623619079589844 39.15052795410156 8.736541748046875 41.26345825195312 C 10.84946823120117 43.37638092041016 13.30939102172852 45.03504180908203 16.04798126220703 46.1933708190918 C 18.88224029541016 47.39215850830078 21.89414024353027 48 25 48 C 28.10585975646973 48 31.11775970458984 47.39215850830078 33.95201873779297 46.1933708190918 C 36.69060897827148 45.03504180908203 39.15052795410156 43.37638092041016 41.26345825195312 41.26345825195312 C 43.37638092041016 39.15052795410156 45.03504180908203 36.69060897827148 46.1933708190918 33.95201873779297 C 47.39215850830078 31.11775970458984 48 28.10585975646973 48 25 C 48 21.89414024353027 47.39215850830078 18.88224029541016 46.1933708190918 16.04798126220703 C 45.03504180908203 13.30939102172852 43.37638092041016 10.84946823120117 41.26345825195312 8.736541748046875 C 39.15052795410156 6.623619079589844 36.69060897827148 4.964958190917969 33.95201873779297 3.806629180908203 C 31.11775970458984 2.607841491699219 28.10585975646973 2 25 2 M 25 0 C 38.80712127685547 0 50 11.19287872314453 50 25 C 50 38.80712127685547 38.80712127685547 50 25 50 C 11.19287872314453 50 0 38.80712127685547 0 25 C 0 11.19287872314453 11.19287872314453 0 25 0 Z"/>
          </g>
          <path id="Path_5-6" data-name="Path 5" class="cls-17" d="M58.159,311.149l9.31,9.31,16.868-16.868L67.469,314.712Z" transform="translate(-46 -287)"/>
        </g>
      </g>
      <g id="vt2Passive-4" data-name="vt2Passive" transform="translate(1209 595)">
        <g id="Group_95" data-name="Group 95">
          <g id="Path_45-2" data-name="Path 45" class="cls-16">
            <path class="cls-29" d="M 25 49 C 21.75958061218262 49 18.61661911010742 48.36558151245117 15.65841960906982 47.1143684387207 C 12.80064010620117 45.9056282043457 10.23388004302979 44.17499923706055 8.029439926147461 41.97055816650391 C 5.824999809265137 39.76612091064453 4.094369888305664 37.19935989379883 2.885629892349243 34.34157943725586 C 1.634420037269592 31.38338088989258 1 28.24041938781738 1 25 C 1 21.75958061218262 1.634420037269592 18.61661911010742 2.885629892349243 15.65841960906982 C 4.094369888305664 12.80064010620117 5.824999809265137 10.23388004302979 8.029439926147461 8.029439926147461 C 10.23388004302979 5.824999809265137 12.80064010620117 4.094369888305664 15.65841960906982 2.885629892349243 C 18.61661911010742 1.634420037269592 21.75958061218262 1 25 1 C 28.24041938781738 1 31.38338088989258 1.634420037269592 34.34157943725586 2.885629892349243 C 37.19935989379883 4.094369888305664 39.76612091064453 5.824999809265137 41.97055816650391 8.029439926147461 C 44.17499923706055 10.23388004302979 45.9056282043457 12.80064010620117 47.1143684387207 15.65841960906982 C 48.36558151245117 18.61661911010742 49 21.75958061218262 49 25 C 49 28.24041938781738 48.36558151245117 31.38338088989258 47.1143684387207 34.34157943725586 C 45.9056282043457 37.19935989379883 44.17499923706055 39.76612091064453 41.97055816650391 41.97055816650391 C 39.76612091064453 44.17499923706055 37.19935989379883 45.9056282043457 34.34157943725586 47.1143684387207 C 31.38338088989258 48.36558151245117 28.24041938781738 49 25 49 Z"/>
            <path class="cls-32" d="M 25 2 C 21.89414024353027 2 18.88224029541016 2.607841491699219 16.04798126220703 3.806629180908203 C 13.30939102172852 4.964958190917969 10.84946823120117 6.623619079589844 8.736541748046875 8.736541748046875 C 6.623619079589844 10.84946823120117 4.964958190917969 13.30939102172852 3.806629180908203 16.04798126220703 C 2.607841491699219 18.88224029541016 2 21.89414024353027 2 25 C 2 28.10585975646973 2.607841491699219 31.11775970458984 3.806629180908203 33.95201873779297 C 4.964958190917969 36.69060897827148 6.623619079589844 39.15052795410156 8.736541748046875 41.26345825195312 C 10.84946823120117 43.37638092041016 13.30939102172852 45.03504180908203 16.04798126220703 46.1933708190918 C 18.88224029541016 47.39215850830078 21.89414024353027 48 25 48 C 28.10585975646973 48 31.11775970458984 47.39215850830078 33.95201873779297 46.1933708190918 C 36.69060897827148 45.03504180908203 39.15052795410156 43.37638092041016 41.26345825195312 41.26345825195312 C 43.37638092041016 39.15052795410156 45.03504180908203 36.69060897827148 46.1933708190918 33.95201873779297 C 47.39215850830078 31.11775970458984 48 28.10585975646973 48 25 C 48 21.89414024353027 47.39215850830078 18.88224029541016 46.1933708190918 16.04798126220703 C 45.03504180908203 13.30939102172852 43.37638092041016 10.84946823120117 41.26345825195312 8.736541748046875 C 39.15052795410156 6.623619079589844 36.69060897827148 4.964958190917969 33.95201873779297 3.806629180908203 C 31.11775970458984 2.607841491699219 28.10585975646973 2 25 2 M 25 0 C 38.80712127685547 0 50 11.19287872314453 50 25 C 50 38.80712127685547 38.80712127685547 50 25 50 C 11.19287872314453 50 0 38.80712127685547 0 25 C 0 11.19287872314453 11.19287872314453 0 25 0 Z"/>
          </g>
          <path id="Path_5-7" data-name="Path 5" class="cls-17" d="M58.159,311.149l9.31,9.31,16.868-16.868L67.469,314.712Z" transform="translate(-46 -287)"/>
        </g>
      </g>
      <g id="ttActive-4" data-name="ttActive" transform="translate(1080 337)">
        <g id="Group_96" data-name="Group 96">
          <g id="Path_17-2" data-name="Path 17" class="cls-16">
            <path class="cls-29" d="M 39 76 C 34.00415420532227 76 29.15880012512207 75.02200317382812 24.59854125976562 73.09317779541016 C 20.19284629821777 71.22972869873047 16.2357063293457 68.56161499023438 12.83704662322998 65.16295623779297 C 9.438387870788574 61.7642936706543 6.770270824432373 57.80715179443359 4.906823635101318 53.40145874023438 C 2.977999925613403 48.84120178222656 2 43.99584579467773 2 39 C 2 34.00415420532227 2.977999925613403 29.15880012512207 4.906823635101318 24.59854125976562 C 6.770270824432373 20.19284629821777 9.438387870788574 16.2357063293457 12.83704662322998 12.83704662322998 C 16.2357063293457 9.438387870788574 20.19284629821777 6.770270824432373 24.59854125976562 4.906823635101318 C 29.15880012512207 2.977999925613403 34.00415420532227 2 39 2 C 43.99584579467773 2 48.84120178222656 2.977999925613403 53.40145874023438 4.906823635101318 C 57.80715179443359 6.770270824432373 61.7642936706543 9.438387870788574 65.16295623779297 12.83704662322998 C 68.56161499023438 16.2357063293457 71.22972869873047 20.19284629821777 73.09317779541016 24.59854125976562 C 75.02200317382812 29.15880012512207 76 34.00415420532227 76 39 C 76 43.99584579467773 75.02200317382812 48.84120178222656 73.09317779541016 53.40145874023438 C 71.22972869873047 57.80715179443359 68.56161499023438 61.7642936706543 65.16295623779297 65.16295623779297 C 61.7642936706543 68.56161499023438 57.80715179443359 71.22972869873047 53.40145874023438 73.09317779541016 C 48.84120178222656 75.02200317382812 43.99584579467773 76 39 76 Z"/>
            <path class="cls-32" d="M 39 4 C 34.27326583862305 4 29.69004058837891 4.924842834472656 25.37765502929688 6.748825073242188 C 21.21034622192383 8.511451721191406 17.46689224243164 11.03562927246094 14.25126647949219 14.25126647949219 C 11.03562927246094 17.46689224243164 8.511451721191406 21.21034622192383 6.748825073242188 25.37765502929688 C 4.924842834472656 29.69004058837891 4 34.27326583862305 4 39 C 4 43.72673416137695 4.924842834472656 48.30994415283203 6.748825073242188 52.62234497070312 C 8.511451721191406 56.78964233398438 11.03562927246094 60.53310394287109 14.25126647949219 63.74873352050781 C 17.46689224243164 66.96436309814453 21.21034622192383 69.48854827880859 25.37765502929688 71.25117492675781 C 29.6900520324707 73.07515716552734 34.27326583862305 74 39 74 C 43.72673416137695 74 48.30994415283203 73.07515716552734 52.62234497070312 71.25117492675781 C 56.78964233398438 69.48854827880859 60.53310394287109 66.96436309814453 63.74873352050781 63.74873352050781 C 66.96436309814453 60.53310394287109 69.48854827880859 56.78964233398438 71.25117492675781 52.62234497070312 C 73.07515716552734 48.30994415283203 74 43.72673416137695 74 39 C 74 34.27326583862305 73.07515716552734 29.6900520324707 71.25117492675781 25.37765502929688 C 69.48854827880859 21.21034622192383 66.96436309814453 17.46689224243164 63.74873352050781 14.25126647949219 C 60.53310394287109 11.03562927246094 56.78964233398438 8.511451721191406 52.62234497070312 6.748825073242188 C 48.30994415283203 4.924842834472656 43.72673416137695 4 39 4 M 39 0 C 60.53909301757812 0 78 17.46089172363281 78 39 C 78 60.53909301757812 60.53909301757812 78 39 78 C 17.46089172363281 78 0 60.53909301757812 0 39 C 0 17.46089172363281 17.46089172363281 0 39 0 Z"/>
          </g>
          <path id="Path_2-8" data-name="Path 2" class="cls-17" d="M103.632,77.821s-1.41-5.127-5.275-5.275-33.454,0-33.454,0,2.186,5.275,9.135,5.275Z" transform="translate(-51.319 -44)"/>
          <path id="Path_3-8" data-name="Path 3" class="cls-17" d="M83.076,90.671a7.087,7.087,0,0,0-6.969-5.447H54.614s2.862,5.447,8.258,5.447Z" transform="translate(-24.923 -49.064)"/>
          <path id="Path_4-8" data-name="Path 4" class="cls-17" d="M62.87,103.884s-2.329-5.361-6.983-5.361H45.075s2.451,5.361,8.019,5.361Z" transform="translate(1.031 -54.348)"/>
        </g>
      </g>
      <g id="vtActive-4" data-name="vtActive" transform="translate(1195 335)">
        <g id="Group_97" data-name="Group 97">
          <g id="Path_20-2" data-name="Path 20" class="cls-16">
            <path class="cls-29" d="M 39 76 C 34.00415420532227 76 29.15880012512207 75.02200317382812 24.59854125976562 73.09317779541016 C 20.19284629821777 71.22972869873047 16.2357063293457 68.56161499023438 12.83704662322998 65.16295623779297 C 9.438387870788574 61.7642936706543 6.770270824432373 57.80715179443359 4.906823635101318 53.40145874023438 C 2.977999925613403 48.84120178222656 2 43.99584579467773 2 39 C 2 34.00415420532227 2.977999925613403 29.15880012512207 4.906823635101318 24.59854125976562 C 6.770270824432373 20.19284629821777 9.438387870788574 16.2357063293457 12.83704662322998 12.83704662322998 C 16.2357063293457 9.438387870788574 20.19284629821777 6.770270824432373 24.59854125976562 4.906823635101318 C 29.15880012512207 2.977999925613403 34.00415420532227 2 39 2 C 43.99584579467773 2 48.84120178222656 2.977999925613403 53.40145874023438 4.906823635101318 C 57.80715179443359 6.770270824432373 61.7642936706543 9.438387870788574 65.16295623779297 12.83704662322998 C 68.56161499023438 16.2357063293457 71.22972869873047 20.19284629821777 73.09317779541016 24.59854125976562 C 75.02200317382812 29.15880012512207 76 34.00415420532227 76 39 C 76 43.99584579467773 75.02200317382812 48.84120178222656 73.09317779541016 53.40145874023438 C 71.22972869873047 57.80715179443359 68.56161499023438 61.7642936706543 65.16295623779297 65.16295623779297 C 61.7642936706543 68.56161499023438 57.80715179443359 71.22972869873047 53.40145874023438 73.09317779541016 C 48.84120178222656 75.02200317382812 43.99584579467773 76 39 76 Z"/>
            <path class="cls-32" d="M 39 4 C 34.27326583862305 4 29.69004058837891 4.924842834472656 25.37765502929688 6.748825073242188 C 21.21034622192383 8.511451721191406 17.46689224243164 11.03562927246094 14.25126647949219 14.25126647949219 C 11.03562927246094 17.46689224243164 8.511451721191406 21.21034622192383 6.748825073242188 25.37765502929688 C 4.924842834472656 29.69004058837891 4 34.27326583862305 4 39 C 4 43.72673416137695 4.924842834472656 48.30994415283203 6.748825073242188 52.62234497070312 C 8.511451721191406 56.78964233398438 11.03562927246094 60.53310394287109 14.25126647949219 63.74873352050781 C 17.46689224243164 66.96436309814453 21.21034622192383 69.48854827880859 25.37765502929688 71.25117492675781 C 29.6900520324707 73.07515716552734 34.27326583862305 74 39 74 C 43.72673416137695 74 48.30994415283203 73.07515716552734 52.62234497070312 71.25117492675781 C 56.78964233398438 69.48854827880859 60.53310394287109 66.96436309814453 63.74873352050781 63.74873352050781 C 66.96436309814453 60.53310394287109 69.48854827880859 56.78964233398438 71.25117492675781 52.62234497070312 C 73.07515716552734 48.30994415283203 74 43.72673416137695 74 39 C 74 34.27326583862305 73.07515716552734 29.6900520324707 71.25117492675781 25.37765502929688 C 69.48854827880859 21.21034622192383 66.96436309814453 17.46689224243164 63.74873352050781 14.25126647949219 C 60.53310394287109 11.03562927246094 56.78964233398438 8.511451721191406 52.62234497070312 6.748825073242188 C 48.30994415283203 4.924842834472656 43.72673416137695 4 39 4 M 39 0 C 60.53909301757812 0 78 17.46089172363281 78 39 C 78 60.53909301757812 60.53909301757812 78 39 78 C 17.46089172363281 78 0 60.53909301757812 0 39 C 0 17.46089172363281 17.46089172363281 0 39 0 Z"/>
          </g>
          <path id="Path_5-8" data-name="Path 5" class="cls-17" d="M58.159,317l16.518,16.518L104.6,303.591,74.677,323.322Z" transform="translate(-42 -280)"/>
        </g>
      </g>
      <g id="logoRight-9" data-name="logoRight" transform="translate(321.334 498.636)">
        <path id="logoRight-10" data-name="logoRight" class="cls-8" d="M6.611,44.78,6.9,45A2.006,2.006,0,0,1,6.611,44.78ZM1.776,40.97C.3,39.686-.9,36.355.917,31.263S10.7,21.128,14.854,17.084s4.82-8.136,3.627-11.8-6.4-2.474-8.161-1.571S7.456,6.235,9.508,8.757c6.109,6.757,3.2,7.9,3.121,7.852.209-1.428-2.309-3.046-2.309-3.046A6.974,6.974,0,0,1,8.077,14.99c-1.1.333-3.389.285-4.774-4.52S7.742.145,14.329,0s10.4,5.377,9.259,12.228-5.823,9.04-10.959,14.694C2.142,39.377,5.506,43.808,6.611,44.78,5.718,44.1,3,42.035,1.776,40.97Zm10.471-6.8s2.177-6.191,6.614-6.191H32.654s-3.2,6.191-9.2,6.191Zm6.533-8.845s2.714-6.433,8.389-6.433H51.448s-3.3,6.433-8.872,6.433Zm7.178-9.006s1.606-6.111,8.067-6.111H70s-1.615,5.873-9.76,6.111c-2.714.079-7.429.106-12.507.106C37.575,16.423,25.959,16.317,25.959,16.317Z" transform="translate(0 0)"/>
      </g>
      <g id="logoRight-11" data-name="logoRight" transform="translate(458.334 498.636)">
        <path id="logoRight-12" data-name="logoRight" class="cls-8" d="M63.389,44.78A2.006,2.006,0,0,1,63.1,45ZM57.371,26.925c-5.136-5.654-9.814-7.843-10.959-14.694S49.085-.14,55.672,0,68.081,5.665,66.7,10.471s-3.676,4.853-4.773,4.52a6.971,6.971,0,0,1-2.244-1.427s-2.518,1.617-2.309,3.046c-.076.047-2.988-1.094,3.121-7.852,2.052-2.522.954-4.139-.812-5.044S52.713,1.62,51.52,5.284s-.525,7.756,3.627,11.8S67.27,26.172,69.083,31.263s.621,8.422-.859,9.707C67,42.035,64.283,44.1,63.389,44.78,64.495,43.806,67.857,39.375,57.371,26.925Zm-10.83,7.243c-6,0-9.2-6.191-9.2-6.191H51.139c4.436,0,6.614,6.191,6.614,6.191ZM27.425,25.323c-5.571,0-8.872-6.433-8.872-6.433H42.831c5.674,0,8.389,6.433,8.389,6.433ZM9.76,16.317C1.616,16.079,0,10.206,0,10.206H35.975c6.461,0,8.066,6.111,8.066,6.111s-11.616.106-21.774.106C17.188,16.423,12.474,16.4,9.76,16.317Z" transform="translate(0 0)"/>
      </g>
      <g id="backgroundLogo-4" data-name="backgroundLogo" transform="translate(429.735 838.781)">
        <g class="cls-36" transform="matrix(1, 0, 0, 1, -429.74, -838.78)">
          <path id="backgroundLogo-5" data-name="backgroundLogo" class="cls-21" d="M968.387,571.322c-23.377-70.643-92.992-153.36-110.2-170.828s-79.634-71.414-99.928-100.7-55.487-56.772-58.827-127.929S713.557,69.883,741.814,43.681,799.1-.5,843.54.011,928.57,12.084,958.624,45.222s65.249,61.4,54.2,108.919-34.423,72.184-56,75.268-49.835-13.615-49.835-13.615-36.683,29.347-39.919,43.83-20.984-29.568,20.029-89.656c18.862-28.927,35.816-27.9,42.5-51.79s3.6-36.735-21.064-57.8S852.274,41.112,837.889,42.4s-52.405,14.643-62.167,43.157-11.56,70.644,6.936,100.442,47.576,73.983,84.413,107.378,121.865,97.616,157.829,152.59,51.89,113.286,13.1,166.718-83.487,71.928-83.487,71.928S991.763,641.966,968.387,571.322ZM686.732,523.973c-66.782,0-115.923-92.445-115.923-92.445H766.7c76.81,0,105.651,92.445,105.651,92.445ZM419.67,388.24c-80.026,0-133.532-96.847-133.532-96.847H648.581c93.915,0,126.194,96.847,126.194,96.847ZM140.135,253.976C38.881,252.875,0,157.862,0,157.862H543.663c99.146,0,123.993,96.114,123.993,96.114s-189.45.489-345.755.489C243.755,254.464,173.884,254.342,140.135,253.976Z" transform="translate(429.74 838.78)"/>
        </g>
      </g>
      <g id="prof2Active-2" data-name="prof2Active" transform="translate(1310 335)">
        <g id="Group_101" data-name="Group 101">
          <g id="Path_20-3" data-name="Path 20" class="cls-16">
            <path class="cls-29" d="M 39 76 C 34.00415420532227 76 29.15880012512207 75.02200317382812 24.59854125976562 73.09317779541016 C 20.19284629821777 71.22972869873047 16.2357063293457 68.56161499023438 12.83704662322998 65.16295623779297 C 9.438387870788574 61.7642936706543 6.770270824432373 57.80715179443359 4.906823635101318 53.40145874023438 C 2.977999925613403 48.84120178222656 2 43.99584579467773 2 39 C 2 34.00415420532227 2.977999925613403 29.15880012512207 4.906823635101318 24.59854125976562 C 6.770270824432373 20.19284629821777 9.438387870788574 16.2357063293457 12.83704662322998 12.83704662322998 C 16.2357063293457 9.438387870788574 20.19284629821777 6.770270824432373 24.59854125976562 4.906823635101318 C 29.15880012512207 2.977999925613403 34.00415420532227 2 39 2 C 43.99584579467773 2 48.84120178222656 2.977999925613403 53.40145874023438 4.906823635101318 C 57.80715179443359 6.770270824432373 61.7642936706543 9.438387870788574 65.16295623779297 12.83704662322998 C 68.56161499023438 16.2357063293457 71.22972869873047 20.19284629821777 73.09317779541016 24.59854125976562 C 75.02200317382812 29.15880012512207 76 34.00415420532227 76 39 C 76 43.99584579467773 75.02200317382812 48.84120178222656 73.09317779541016 53.40145874023438 C 71.22972869873047 57.80715179443359 68.56161499023438 61.7642936706543 65.16295623779297 65.16295623779297 C 61.7642936706543 68.56161499023438 57.80715179443359 71.22972869873047 53.40145874023438 73.09317779541016 C 48.84120178222656 75.02200317382812 43.99584579467773 76 39 76 Z"/>
            <path class="cls-32" d="M 39 4 C 34.27326583862305 4 29.69004058837891 4.924842834472656 25.37765502929688 6.748825073242188 C 21.21034622192383 8.511451721191406 17.46689224243164 11.03562927246094 14.25126647949219 14.25126647949219 C 11.03562927246094 17.46689224243164 8.511451721191406 21.21034622192383 6.748825073242188 25.37765502929688 C 4.924842834472656 29.69004058837891 4 34.27326583862305 4 39 C 4 43.72673416137695 4.924842834472656 48.30994415283203 6.748825073242188 52.62234497070312 C 8.511451721191406 56.78964233398438 11.03562927246094 60.53310394287109 14.25126647949219 63.74873352050781 C 17.46689224243164 66.96436309814453 21.21034622192383 69.48854827880859 25.37765502929688 71.25117492675781 C 29.6900520324707 73.07515716552734 34.27326583862305 74 39 74 C 43.72673416137695 74 48.30994415283203 73.07515716552734 52.62234497070312 71.25117492675781 C 56.78964233398438 69.48854827880859 60.53310394287109 66.96436309814453 63.74873352050781 63.74873352050781 C 66.96436309814453 60.53310394287109 69.48854827880859 56.78964233398438 71.25117492675781 52.62234497070312 C 73.07515716552734 48.30994415283203 74 43.72673416137695 74 39 C 74 34.27326583862305 73.07515716552734 29.6900520324707 71.25117492675781 25.37765502929688 C 69.48854827880859 21.21034622192383 66.96436309814453 17.46689224243164 63.74873352050781 14.25126647949219 C 60.53310394287109 11.03562927246094 56.78964233398438 8.511451721191406 52.62234497070312 6.748825073242188 C 48.30994415283203 4.924842834472656 43.72673416137695 4 39 4 M 39 0 C 60.53909301757812 0 78 17.46089172363281 78 39 C 78 60.53909301757812 60.53909301757812 78 39 78 C 17.46089172363281 78 0 60.53909301757812 0 39 C 0 17.46089172363281 17.46089172363281 0 39 0 Z"/>
          </g>
          <path id="Path_46" data-name="Path 46" class="cls-17" d="M1130.958,2854.081s.577-19.812,11.721-19.812,12.042,19.812,12.042,19.812" transform="translate(-1103.818 -2796.258)"/>
          <circle id="Ellipse_14" data-name="Ellipse 14" class="cls-17" cx="10" cy="10" r="10" transform="translate(29 21)"/>
        </g>
      </g>
      <g id="prof2Passive-2" data-name="prof2Passive" transform="translate(965 337)">
        <g id="Group_102" data-name="Group 102">
          <g id="Path_20-4" data-name="Path 20" class="cls-4">
            <path class="cls-29" d="M39,0A39,39,0,1,1,0,39,39,39,0,0,1,39,0Z"/>
            <path class="cls-32" d="M 39 4 C 34.27326583862305 4 29.69004058837891 4.924842834472656 25.37765502929688 6.748825073242188 C 21.21034622192383 8.511451721191406 17.46689224243164 11.03562927246094 14.25126647949219 14.25126647949219 C 11.03562927246094 17.46689224243164 8.511451721191406 21.21034622192383 6.748825073242188 25.37765502929688 C 4.924842834472656 29.69004058837891 4 34.27326583862305 4 39 C 4 43.72673416137695 4.924842834472656 48.30994415283203 6.748825073242188 52.62234497070312 C 8.511451721191406 56.78964233398438 11.03562927246094 60.53310394287109 14.25126647949219 63.74873352050781 C 17.46689224243164 66.96436309814453 21.21034622192383 69.48854827880859 25.37765502929688 71.25117492675781 C 29.6900520324707 73.07515716552734 34.27326583862305 74 39 74 C 43.72673416137695 74 48.30994415283203 73.07515716552734 52.62234497070312 71.25117492675781 C 56.78964233398438 69.48854827880859 60.53310394287109 66.96436309814453 63.74873352050781 63.74873352050781 C 66.96436309814453 60.53310394287109 69.48854827880859 56.78964233398438 71.25117492675781 52.62234497070312 C 73.07515716552734 48.30994415283203 74 43.72673416137695 74 39 C 74 34.27326583862305 73.07515716552734 29.6900520324707 71.25117492675781 25.37765502929688 C 69.48854827880859 21.21034622192383 66.96436309814453 17.46689224243164 63.74873352050781 14.25126647949219 C 60.53310394287109 11.03562927246094 56.78964233398438 8.511451721191406 52.62234497070312 6.748825073242188 C 48.30994415283203 4.924842834472656 43.72673416137695 4 39 4 M 39 0 C 60.53909301757812 0 78 17.46089172363281 78 39 C 78 60.53909301757812 60.53909301757812 78 39 78 C 17.46089172363281 78 0 60.53909301757812 0 39 C 0 17.46089172363281 17.46089172363281 0 39 0 Z"/>
          </g>
          <path id="Path_46-2" data-name="Path 46" class="cls-17" d="M1130.958,2854.081s.577-19.812,11.721-19.812,12.042,19.812,12.042,19.812" transform="translate(-1103.818 -2796.258)"/>
          <circle id="Ellipse_14-2" data-name="Ellipse 14" class="cls-17" cx="10" cy="10" r="10" transform="translate(29 21)"/>
        </g>
      </g>
      <g id="profActive-2" data-name="profActive" transform="translate(1310 219)">
        <g id="Group_103" data-name="Group 103">
          <g id="Path_20-5" data-name="Path 20" class="cls-16">
            <path class="cls-29" d="M 39 76 C 34.00415420532227 76 29.15880012512207 75.02200317382812 24.59854125976562 73.09317779541016 C 20.19284629821777 71.22972869873047 16.2357063293457 68.56161499023438 12.83704662322998 65.16295623779297 C 9.438387870788574 61.7642936706543 6.770270824432373 57.80715179443359 4.906823635101318 53.40145874023438 C 2.977999925613403 48.84120178222656 2 43.99584579467773 2 39 C 2 34.00415420532227 2.977999925613403 29.15880012512207 4.906823635101318 24.59854125976562 C 6.770270824432373 20.19284629821777 9.438387870788574 16.2357063293457 12.83704662322998 12.83704662322998 C 16.2357063293457 9.438387870788574 20.19284629821777 6.770270824432373 24.59854125976562 4.906823635101318 C 29.15880012512207 2.977999925613403 34.00415420532227 2 39 2 C 43.99584579467773 2 48.84120178222656 2.977999925613403 53.40145874023438 4.906823635101318 C 57.80715179443359 6.770270824432373 61.7642936706543 9.438387870788574 65.16295623779297 12.83704662322998 C 68.56161499023438 16.2357063293457 71.22972869873047 20.19284629821777 73.09317779541016 24.59854125976562 C 75.02200317382812 29.15880012512207 76 34.00415420532227 76 39 C 76 43.99584579467773 75.02200317382812 48.84120178222656 73.09317779541016 53.40145874023438 C 71.22972869873047 57.80715179443359 68.56161499023438 61.7642936706543 65.16295623779297 65.16295623779297 C 61.7642936706543 68.56161499023438 57.80715179443359 71.22972869873047 53.40145874023438 73.09317779541016 C 48.84120178222656 75.02200317382812 43.99584579467773 76 39 76 Z"/>
            <path class="cls-32" d="M 39 4 C 34.27326583862305 4 29.69004058837891 4.924842834472656 25.37765502929688 6.748825073242188 C 21.21034622192383 8.511451721191406 17.46689224243164 11.03562927246094 14.25126647949219 14.25126647949219 C 11.03562927246094 17.46689224243164 8.511451721191406 21.21034622192383 6.748825073242188 25.37765502929688 C 4.924842834472656 29.69004058837891 4 34.27326583862305 4 39 C 4 43.72673416137695 4.924842834472656 48.30994415283203 6.748825073242188 52.62234497070312 C 8.511451721191406 56.78964233398438 11.03562927246094 60.53310394287109 14.25126647949219 63.74873352050781 C 17.46689224243164 66.96436309814453 21.21034622192383 69.48854827880859 25.37765502929688 71.25117492675781 C 29.6900520324707 73.07515716552734 34.27326583862305 74 39 74 C 43.72673416137695 74 48.30994415283203 73.07515716552734 52.62234497070312 71.25117492675781 C 56.78964233398438 69.48854827880859 60.53310394287109 66.96436309814453 63.74873352050781 63.74873352050781 C 66.96436309814453 60.53310394287109 69.48854827880859 56.78964233398438 71.25117492675781 52.62234497070312 C 73.07515716552734 48.30994415283203 74 43.72673416137695 74 39 C 74 34.27326583862305 73.07515716552734 29.6900520324707 71.25117492675781 25.37765502929688 C 69.48854827880859 21.21034622192383 66.96436309814453 17.46689224243164 63.74873352050781 14.25126647949219 C 60.53310394287109 11.03562927246094 56.78964233398438 8.511451721191406 52.62234497070312 6.748825073242188 C 48.30994415283203 4.924842834472656 43.72673416137695 4 39 4 M 39 0 C 60.53909301757812 0 78 17.46089172363281 78 39 C 78 60.53909301757812 60.53909301757812 78 39 78 C 17.46089172363281 78 0 60.53909301757812 0 39 C 0 17.46089172363281 17.46089172363281 0 39 0 Z"/>
          </g>
          <path id="Path_46-3" data-name="Path 46" class="cls-17" d="M1130.958,2854.081s.577-19.812,11.721-19.812,12.042,19.812,12.042,19.812" transform="translate(-1103.818 -2796.258)"/>
          <circle id="Ellipse_14-3" data-name="Ellipse 14" class="cls-17" cx="10" cy="10" r="10" transform="translate(29 21)"/>
        </g>
      </g>
      <g id="mprofActive-2" data-name="mprofActive" transform="translate(1324 499)">
        <g id="Group_104" data-name="Group 104">
          <g id="Path_20-6" data-name="Path 20" class="cls-16">
            <path class="cls-29" d="M 25 49 C 21.75958061218262 49 18.61661911010742 48.36558151245117 15.65841960906982 47.1143684387207 C 12.80064010620117 45.9056282043457 10.23388004302979 44.17499923706055 8.029439926147461 41.97055816650391 C 5.824999809265137 39.76612091064453 4.094369888305664 37.19935989379883 2.885629892349243 34.34157943725586 C 1.634420037269592 31.38338088989258 1 28.24041938781738 1 25 C 1 21.75958061218262 1.634420037269592 18.61661911010742 2.885629892349243 15.65841960906982 C 4.094369888305664 12.80064010620117 5.824999809265137 10.23388004302979 8.029439926147461 8.029439926147461 C 10.23388004302979 5.824999809265137 12.80064010620117 4.094369888305664 15.65841960906982 2.885629892349243 C 18.61661911010742 1.634420037269592 21.75958061218262 1 25 1 C 28.24041938781738 1 31.38338088989258 1.634420037269592 34.34157943725586 2.885629892349243 C 37.19935989379883 4.094369888305664 39.76612091064453 5.824999809265137 41.97055816650391 8.029439926147461 C 44.17499923706055 10.23388004302979 45.9056282043457 12.80064010620117 47.1143684387207 15.65841960906982 C 48.36558151245117 18.61661911010742 49 21.75958061218262 49 25 C 49 28.24041938781738 48.36558151245117 31.38338088989258 47.1143684387207 34.34157943725586 C 45.9056282043457 37.19935989379883 44.17499923706055 39.76612091064453 41.97055816650391 41.97055816650391 C 39.76612091064453 44.17499923706055 37.19935989379883 45.9056282043457 34.34157943725586 47.1143684387207 C 31.38338088989258 48.36558151245117 28.24041938781738 49 25 49 Z"/>
            <path class="cls-32" d="M 25 2 C 21.89414024353027 2 18.88224029541016 2.607841491699219 16.04798126220703 3.806629180908203 C 13.30939102172852 4.964958190917969 10.84946823120117 6.623619079589844 8.736541748046875 8.736541748046875 C 6.623619079589844 10.84946823120117 4.964958190917969 13.30939102172852 3.806629180908203 16.04798126220703 C 2.607841491699219 18.88224029541016 2 21.89414024353027 2 25 C 2 28.10585975646973 2.607841491699219 31.11775970458984 3.806629180908203 33.95201873779297 C 4.964958190917969 36.69060897827148 6.623619079589844 39.15052795410156 8.736541748046875 41.26345825195312 C 10.84946823120117 43.37638092041016 13.30939102172852 45.03504180908203 16.04798126220703 46.1933708190918 C 18.88224029541016 47.39215850830078 21.89414024353027 48 25 48 C 28.10585975646973 48 31.11775970458984 47.39215850830078 33.95201873779297 46.1933708190918 C 36.69060897827148 45.03504180908203 39.15052795410156 43.37638092041016 41.26345825195312 41.26345825195312 C 43.37638092041016 39.15052795410156 45.03504180908203 36.69060897827148 46.1933708190918 33.95201873779297 C 47.39215850830078 31.11775970458984 48 28.10585975646973 48 25 C 48 21.89414024353027 47.39215850830078 18.88224029541016 46.1933708190918 16.04798126220703 C 45.03504180908203 13.30939102172852 43.37638092041016 10.84946823120117 41.26345825195312 8.736541748046875 C 39.15052795410156 6.623619079589844 36.69060897827148 4.964958190917969 33.95201873779297 3.806629180908203 C 31.11775970458984 2.607841491699219 28.10585975646973 2 25 2 M 25 0 C 38.80712127685547 0 50 11.19287872314453 50 25 C 50 38.80712127685547 38.80712127685547 50 25 50 C 11.19287872314453 50 0 38.80712127685547 0 25 C 0 11.19287872314453 11.19287872314453 0 25 0 Z"/>
          </g>
          <path id="Path_46-4" data-name="Path 46" class="cls-17" d="M1130.958,2850.062s.393-15.792,7.973-15.792,8.191,15.792,8.191,15.792" transform="translate(-1114.03 -2812.07)"/>
          <circle id="Ellipse_14-4" data-name="Ellipse 14" class="cls-17" cx="7" cy="7" r="7" transform="translate(18 12.862)"/>
        </g>
      </g>
      <g id="mporfPassive" transform="translate(979 499)">
        <g id="Group_105" data-name="Group 105">
          <g id="Path_20-7" data-name="Path 20" class="cls-4">
            <path class="cls-29" d="M25,0A25,25,0,1,1,0,25,25,25,0,0,1,25,0Z"/>
            <path class="cls-33" d="M 25 2 C 21.89414024353027 2 18.88224029541016 2.607841491699219 16.04798126220703 3.806629180908203 C 13.30939102172852 4.964958190917969 10.84946823120117 6.623619079589844 8.736541748046875 8.736541748046875 C 6.623619079589844 10.84946823120117 4.964958190917969 13.30939102172852 3.806629180908203 16.04798126220703 C 2.607841491699219 18.88224029541016 2 21.89414024353027 2 25 C 2 28.10585975646973 2.607841491699219 31.11775970458984 3.806629180908203 33.95201873779297 C 4.964958190917969 36.69060897827148 6.623619079589844 39.15052795410156 8.736541748046875 41.26345825195312 C 10.84946823120117 43.37638092041016 13.30939102172852 45.03504180908203 16.04798126220703 46.1933708190918 C 18.88224029541016 47.39215850830078 21.89414024353027 48 25 48 C 28.10585975646973 48 31.11775970458984 47.39215850830078 33.95201873779297 46.1933708190918 C 36.69060897827148 45.03504180908203 39.15052795410156 43.37638092041016 41.26345825195312 41.26345825195312 C 43.37638092041016 39.15052795410156 45.03504180908203 36.69060897827148 46.1933708190918 33.95201873779297 C 47.39215850830078 31.11775970458984 48 28.10585975646973 48 25 C 48 21.89414024353027 47.39215850830078 18.88224029541016 46.1933708190918 16.04798126220703 C 45.03504180908203 13.30939102172852 43.37638092041016 10.84946823120117 41.26345825195312 8.736541748046875 C 39.15052795410156 6.623619079589844 36.69060897827148 4.964958190917969 33.95201873779297 3.806629180908203 C 31.11775970458984 2.607841491699219 28.10585975646973 2 25 2 M 25 0 C 38.80712127685547 0 50 11.19287872314453 50 25 C 50 38.80712127685547 38.80712127685547 50 25 50 C 11.19287872314453 50 0 38.80712127685547 0 25 C 0 11.19287872314453 11.19287872314453 0 25 0 Z"/>
          </g>
          <path id="Path_46-5" data-name="Path 46" class="cls-2" d="M1130.958,2850.062s.393-15.792,7.973-15.792,8.191,15.792,8.191,15.792" transform="translate(-1114.03 -2812.07)"/>
          <circle id="Ellipse_14-5" data-name="Ellipse 14" class="cls-2" cx="7" cy="7" r="7" transform="translate(18 12.862)"/>
        </g>
      </g>
      <g id="mprof2Active-2" data-name="mprof2Active" transform="translate(1324 595)">
        <g id="Group_106" data-name="Group 106">
          <g id="Path_20-8" data-name="Path 20" class="cls-16">
            <path class="cls-29" d="M 25 49 C 21.75958061218262 49 18.61661911010742 48.36558151245117 15.65841960906982 47.1143684387207 C 12.80064010620117 45.9056282043457 10.23388004302979 44.17499923706055 8.029439926147461 41.97055816650391 C 5.824999809265137 39.76612091064453 4.094369888305664 37.19935989379883 2.885629892349243 34.34157943725586 C 1.634420037269592 31.38338088989258 1 28.24041938781738 1 25 C 1 21.75958061218262 1.634420037269592 18.61661911010742 2.885629892349243 15.65841960906982 C 4.094369888305664 12.80064010620117 5.824999809265137 10.23388004302979 8.029439926147461 8.029439926147461 C 10.23388004302979 5.824999809265137 12.80064010620117 4.094369888305664 15.65841960906982 2.885629892349243 C 18.61661911010742 1.634420037269592 21.75958061218262 1 25 1 C 28.24041938781738 1 31.38338088989258 1.634420037269592 34.34157943725586 2.885629892349243 C 37.19935989379883 4.094369888305664 39.76612091064453 5.824999809265137 41.97055816650391 8.029439926147461 C 44.17499923706055 10.23388004302979 45.9056282043457 12.80064010620117 47.1143684387207 15.65841960906982 C 48.36558151245117 18.61661911010742 49 21.75958061218262 49 25 C 49 28.24041938781738 48.36558151245117 31.38338088989258 47.1143684387207 34.34157943725586 C 45.9056282043457 37.19935989379883 44.17499923706055 39.76612091064453 41.97055816650391 41.97055816650391 C 39.76612091064453 44.17499923706055 37.19935989379883 45.9056282043457 34.34157943725586 47.1143684387207 C 31.38338088989258 48.36558151245117 28.24041938781738 49 25 49 Z"/>
            <path class="cls-32" d="M 25 2 C 21.89414024353027 2 18.88224029541016 2.607841491699219 16.04798126220703 3.806629180908203 C 13.30939102172852 4.964958190917969 10.84946823120117 6.623619079589844 8.736541748046875 8.736541748046875 C 6.623619079589844 10.84946823120117 4.964958190917969 13.30939102172852 3.806629180908203 16.04798126220703 C 2.607841491699219 18.88224029541016 2 21.89414024353027 2 25 C 2 28.10585975646973 2.607841491699219 31.11775970458984 3.806629180908203 33.95201873779297 C 4.964958190917969 36.69060897827148 6.623619079589844 39.15052795410156 8.736541748046875 41.26345825195312 C 10.84946823120117 43.37638092041016 13.30939102172852 45.03504180908203 16.04798126220703 46.1933708190918 C 18.88224029541016 47.39215850830078 21.89414024353027 48 25 48 C 28.10585975646973 48 31.11775970458984 47.39215850830078 33.95201873779297 46.1933708190918 C 36.69060897827148 45.03504180908203 39.15052795410156 43.37638092041016 41.26345825195312 41.26345825195312 C 43.37638092041016 39.15052795410156 45.03504180908203 36.69060897827148 46.1933708190918 33.95201873779297 C 47.39215850830078 31.11775970458984 48 28.10585975646973 48 25 C 48 21.89414024353027 47.39215850830078 18.88224029541016 46.1933708190918 16.04798126220703 C 45.03504180908203 13.30939102172852 43.37638092041016 10.84946823120117 41.26345825195312 8.736541748046875 C 39.15052795410156 6.623619079589844 36.69060897827148 4.964958190917969 33.95201873779297 3.806629180908203 C 31.11775970458984 2.607841491699219 28.10585975646973 2 25 2 M 25 0 C 38.80712127685547 0 50 11.19287872314453 50 25 C 50 38.80712127685547 38.80712127685547 50 25 50 C 11.19287872314453 50 0 38.80712127685547 0 25 C 0 11.19287872314453 11.19287872314453 0 25 0 Z"/>
          </g>
          <path id="Path_46-6" data-name="Path 46" class="cls-17" d="M1130.958,2850.062s.393-15.792,7.973-15.792,8.191,15.792,8.191,15.792" transform="translate(-1114.03 -2812.07)"/>
          <circle id="Ellipse_14-6" data-name="Ellipse 14" class="cls-17" cx="7" cy="7" r="7" transform="translate(18 12.862)"/>
        </g>
      </g>
      <g id="mprof2Passive-2" data-name="mprof2Passive" transform="translate(979 595)">
        <g id="Group_107" data-name="Group 107">
          <g id="Path_20-9" data-name="Path 20" class="cls-4">
            <path class="cls-29" d="M25,0A25,25,0,1,1,0,25,25,25,0,0,1,25,0Z"/>
            <path class="cls-32" d="M 25 2 C 21.89414024353027 2 18.88224029541016 2.607841491699219 16.04798126220703 3.806629180908203 C 13.30939102172852 4.964958190917969 10.84946823120117 6.623619079589844 8.736541748046875 8.736541748046875 C 6.623619079589844 10.84946823120117 4.964958190917969 13.30939102172852 3.806629180908203 16.04798126220703 C 2.607841491699219 18.88224029541016 2 21.89414024353027 2 25 C 2 28.10585975646973 2.607841491699219 31.11775970458984 3.806629180908203 33.95201873779297 C 4.964958190917969 36.69060897827148 6.623619079589844 39.15052795410156 8.736541748046875 41.26345825195312 C 10.84946823120117 43.37638092041016 13.30939102172852 45.03504180908203 16.04798126220703 46.1933708190918 C 18.88224029541016 47.39215850830078 21.89414024353027 48 25 48 C 28.10585975646973 48 31.11775970458984 47.39215850830078 33.95201873779297 46.1933708190918 C 36.69060897827148 45.03504180908203 39.15052795410156 43.37638092041016 41.26345825195312 41.26345825195312 C 43.37638092041016 39.15052795410156 45.03504180908203 36.69060897827148 46.1933708190918 33.95201873779297 C 47.39215850830078 31.11775970458984 48 28.10585975646973 48 25 C 48 21.89414024353027 47.39215850830078 18.88224029541016 46.1933708190918 16.04798126220703 C 45.03504180908203 13.30939102172852 43.37638092041016 10.84946823120117 41.26345825195312 8.736541748046875 C 39.15052795410156 6.623619079589844 36.69060897827148 4.964958190917969 33.95201873779297 3.806629180908203 C 31.11775970458984 2.607841491699219 28.10585975646973 2 25 2 M 25 0 C 38.80712127685547 0 50 11.19287872314453 50 25 C 50 38.80712127685547 38.80712127685547 50 25 50 C 11.19287872314453 50 0 38.80712127685547 0 25 C 0 11.19287872314453 11.19287872314453 0 25 0 Z"/>
          </g>
          <path id="Path_46-7" data-name="Path 46" class="cls-17" d="M1130.958,2850.062s.393-15.792,7.973-15.792,8.191,15.792,8.191,15.792" transform="translate(-1114.03 -2812.07)"/>
          <circle id="Ellipse_14-7" data-name="Ellipse 14" class="cls-17" cx="7" cy="7" r="7" transform="translate(18 12.862)"/>
        </g>
      </g>
      <g id="send-3" data-name="send" transform="translate(1568 346)">
        <g id="Group_108" data-name="Group 108">
          <rect id="Rectangle_7" data-name="Rectangle 7" class="cls-22" width="45" height="45" rx="10"/>
          <path id="Path_21" data-name="Path 21" class="cls-23" d="M1874.031,4686.8l6.94,5.822-.146,6.834,3.78-4.736,8.874,3.12,1.337-22.62Z" transform="translate(-1862.007 -4665)"/>
          <path id="Path_22" data-name="Path 22" class="cls-24" d="M1880.892,4693.371l13.9-18.184-10.2,20.313" transform="translate(-1861.77 -4665.396)"/>
        </g>
      </g>
      <g id="send-4" data-name="send" transform="translate(1568 600)">
        <g id="Group_109" data-name="Group 109">
          <rect id="Rectangle_7-2" data-name="Rectangle 7" class="cls-22" width="45" height="45" rx="10"/>
          <path id="Path_21-2" data-name="Path 21" class="cls-23" d="M1874.031,4686.8l6.94,5.822-.146,6.834,3.78-4.736,8.874,3.12,1.337-22.62Z" transform="translate(-1862.007 -4665)"/>
          <path id="Path_22-2" data-name="Path 22" class="cls-24" d="M1880.892,4693.371l13.9-18.184-10.2,20.313" transform="translate(-1861.77 -4665.396)"/>
        </g>
      </g>
      <g id="chatMemberIcon-3" data-name="chatMemberIcon" transform="translate(1475.394 352)">
        <g id="Group_110" data-name="Group 110" transform="translate(0)">
          <path id="Path_46-8" data-name="Path 46" class="cls-25" d="M1131.213,2846.392s.323-12.122,11.467-12.122,11.139,12.122,11.139,12.122" transform="translate(-1131.212 -2814.258)"/>
          <g id="Ellipse_14-8" data-name="Ellipse 14" class="cls-25" transform="translate(1.606)">
            <circle class="cls-29" cx="10" cy="10" r="10"/>
            <circle class="cls-31" cx="10" cy="10" r="7"/>
          </g>
        </g>
      </g>
      <g id="chatMemberIcon-4" data-name="chatMemberIcon" transform="translate(1468.394 606)">
        <g id="Group_111" data-name="Group 111" transform="translate(0)">
          <path id="Path_46-9" data-name="Path 46" class="cls-25" d="M1131.213,2846.392s.323-12.122,11.467-12.122,11.139,12.122,11.139,12.122" transform="translate(-1131.212 -2814.258)"/>
          <g id="Ellipse_14-9" data-name="Ellipse 14" class="cls-25" transform="translate(1.606)">
            <circle class="cls-29" cx="10" cy="10" r="10"/>
            <circle class="cls-31" cx="10" cy="10" r="7"/>
          </g>
        </g>
      </g>
      <g id="profPassive-2" data-name="profPassive" transform="translate(965 219)">
        <g id="Group_112" data-name="Group 112">
          <g id="Path_20-10" data-name="Path 20" class="cls-4">
            <path class="cls-29" d="M39,0A39,39,0,1,1,0,39,39,39,0,0,1,39,0Z"/>
            <path class="cls-33" d="M 39 4 C 34.27326583862305 4 29.69004058837891 4.924842834472656 25.37765502929688 6.748825073242188 C 21.21034622192383 8.511451721191406 17.46689224243164 11.03562927246094 14.25126647949219 14.25126647949219 C 11.03562927246094 17.46689224243164 8.511451721191406 21.21034622192383 6.748825073242188 25.37765502929688 C 4.924842834472656 29.69004058837891 4 34.27326583862305 4 39 C 4 43.72673416137695 4.924842834472656 48.30994415283203 6.748825073242188 52.62234497070312 C 8.511451721191406 56.78964233398438 11.03562927246094 60.53310394287109 14.25126647949219 63.74873352050781 C 17.46689224243164 66.96436309814453 21.21034622192383 69.48854827880859 25.37765502929688 71.25117492675781 C 29.6900520324707 73.07515716552734 34.27326583862305 74 39 74 C 43.72673416137695 74 48.30994415283203 73.07515716552734 52.62234497070312 71.25117492675781 C 56.78964233398438 69.48854827880859 60.53310394287109 66.96436309814453 63.74873352050781 63.74873352050781 C 66.96436309814453 60.53310394287109 69.48854827880859 56.78964233398438 71.25117492675781 52.62234497070312 C 73.07515716552734 48.30994415283203 74 43.72673416137695 74 39 C 74 34.27326583862305 73.07515716552734 29.6900520324707 71.25117492675781 25.37765502929688 C 69.48854827880859 21.21034622192383 66.96436309814453 17.46689224243164 63.74873352050781 14.25126647949219 C 60.53310394287109 11.03562927246094 56.78964233398438 8.511451721191406 52.62234497070312 6.748825073242188 C 48.30994415283203 4.924842834472656 43.72673416137695 4 39 4 M 39 0 C 60.53909301757812 0 78 17.46089172363281 78 39 C 78 60.53909301757812 60.53909301757812 78 39 78 C 17.46089172363281 78 0 60.53909301757812 0 39 C 0 17.46089172363281 17.46089172363281 0 39 0 Z"/>
          </g>
          <path id="Path_46-10" data-name="Path 46" class="cls-2" d="M1130.958,2854.081s.577-19.812,11.721-19.812,12.042,19.812,12.042,19.812" transform="translate(-1103.818 -2796.258)"/>
          <circle id="Ellipse_14-10" data-name="Ellipse 14" class="cls-2" cx="10" cy="10" r="10" transform="translate(29 21)"/>
        </g>
      </g>
      <g id="login-2" data-name="login" transform="translate(1475 442)">
        <g id="Group_113" data-name="Group 113">
          <g id="Rectangle_30" data-name="Rectangle 30" class="cls-26">
            <rect class="cls-29" width="131" height="55" rx="10"/>
            <rect class="cls-31" x="0.5" y="0.5" width="130" height="54" rx="9.5"/>
          </g>
          <text id="Login-3" data-name="Login" class="cls-27" transform="translate(40 35)"><tspan x="0" y="0">Login</tspan></text>
        </g>
      </g>
      <g id="signup-2" data-name="signup" transform="translate(1475 501)">
        <g id="Group_114" data-name="Group 114">
          <rect id="Rectangle_29" data-name="Rectangle 29" class="cls-6" width="131" height="55" rx="10"/>
          <text id="Sign_up" data-name="Sign up" class="cls-28" transform="translate(35 35)"><tspan x="0" y="0">Sign up</tspan></text>
        </g>
      </g>
      <g id="backgroundLogo-6" data-name="backgroundLogo" transform="translate(356.334 1240.392)">
        <g class="cls-35" transform="matrix(1, 0, 0, 1, -356.33, -1240.39)">
          <path id="backgroundLogo-7" data-name="backgroundLogo" class="cls-21" d="M314.584,185.772c-7.594-22.971-30.208-49.866-35.8-55.546S252.914,107,246.322,97.482s-18.025-18.46-19.11-41.6S231.8,22.723,240.981,14.2,259.591-.164,274.027,0s27.622,3.926,37.386,14.7,21.2,19.964,17.608,35.417-11.183,23.471-18.192,24.474-16.189-4.427-16.189-4.427S282.723,79.71,281.671,84.42s-6.816-9.615,6.507-29.153c6.128-9.406,11.635-9.072,13.805-16.841s1.168-11.944-6.843-18.794-18.275-6.265-22.949-5.847S255.168,18.547,252,27.819s-3.755,22.97,2.254,32.659S269.7,84.535,281.671,95.394s39.589,31.741,51.272,49.616S349.8,181.846,337.2,199.22s-27.121,23.387-27.121,23.387S322.178,208.742,314.584,185.772Zm-91.5-15.4c-21.695,0-37.658-30.059-37.658-30.059h63.637c24.952,0,34.321,30.059,34.321,30.059ZM136.331,126.24c-26,0-43.378-31.49-43.378-31.49H210.694c30.509,0,40.995,31.49,40.995,31.49ZM45.523,82.583C12.631,82.225,0,51.331,0,51.331H176.611c32.208,0,40.28,31.252,40.28,31.252s-61.544.158-112.321.158C79.185,82.742,56.487,82.7,45.523,82.583Z" transform="translate(356.33 1240.39)"/>
        </g>
      </g>
      <g id="backgroundLogo-8" data-name="backgroundLogo" transform="translate(796.735 1410.781)">
        <g class="cls-34" transform="matrix(1, 0, 0, 1, -796.74, -1410.78)">
          <path id="backgroundLogo-9" data-name="backgroundLogo" class="cls-21" d="M281.712,165.743c-6.8-20.494-27.052-44.491-32.06-49.558s-23.166-20.718-29.069-29.213S204.44,70.5,203.469,49.859s4.11-29.586,12.331-37.187S232.465-.146,245.393,0s24.736,3.5,33.478,13.117,18.982,17.811,15.768,31.6-10.013,20.941-16.291,21.835-14.5-3.949-14.5-3.949-10.671,8.514-11.614,12.715-6.1-8.578,5.827-26.01c5.487-8.392,10.419-8.094,12.362-15.025s1.046-10.657-6.128-16.768-16.366-5.589-20.551-5.216-15.245,4.248-18.085,12.52-3.363,20.494,2.018,29.138,13.84,21.463,24.556,31.151,35.452,28.319,45.914,44.267,15.1,32.864,3.811,48.366-24.287,20.867-24.287,20.867S288.512,186.237,281.712,165.743Zm-81.936-13.736c-19.427,0-33.722-26.819-33.722-26.819h56.987c22.344,0,30.735,26.819,30.735,26.819Zm-77.691-39.377c-23.28,0-38.845-28.1-38.845-28.1H188.677c27.321,0,36.711,28.1,36.711,28.1ZM40.766,73.679C11.31,73.36,0,45.8,0,45.8H158.156c28.842,0,36.07,27.883,36.07,27.883s-55.112.142-100.583.142C70.91,73.822,50.584,73.786,40.766,73.679Z" transform="translate(796.74 1410.78)"/>
        </g>
      </g>
    </g>
  </g>
</svg>
